<svg width="13" height="16" viewBox="0 0 13 16" fill="none" xmlns="http://www.w3.org/2000/svg">
<path d="M13 3.57004V12.4899C13 14.1144 11.6795 15.4375 10.055 15.4375H6.16425C4.68102 15.4375 3.45268 14.336 3.25 12.9052C3.31449 12.9114 3.37898 12.9145 3.44654 12.9145H4.94819C5.0526 12.9145 5.15701 12.9052 5.25835 12.8899C5.41189 13.2375 5.76197 13.4806 6.16425 13.4806H10.055C10.6017 13.4806 11.0469 13.0345 11.0469 12.4899V3.57004C11.0469 3.39466 11.1882 3.25005 11.3663 3.25005H12.6776C12.8557 3.24697 13 3.39158 13 3.57004Z" fill="#000"/>
<path d="M8.125 4.62356V8.26105C8.125 9.44375 7.23475 10.4239 6.09227 10.555V10.8767C6.09227 11.5976 5.50767 12.1875 4.78657 12.1875H3.33546C2.61436 12.1875 2.02977 11.6006 2.02977 10.8767V10.555C0.887281 10.4209 0 9.44375 0 8.26105V4.62356C0 4.08435 0.436222 3.64344 0.973338 3.64344H7.15166C7.68878 3.64642 8.125 4.08435 8.125 4.62356ZM6.30889 0H1.81611C1.46001 0 1.17513 0.288973 1.17513 0.643486V3.02081H6.95284V0.643486C6.94987 0.288973 6.66202 0 6.30889 0ZM3.37404 1.996C3.37404 2.16879 3.23457 2.30582 3.06542 2.30582C2.89627 2.30582 2.7568 2.16581 2.7568 1.996V1.02779C2.7568 0.855002 2.89627 0.717963 3.06542 0.717963C3.23457 0.717963 3.37404 0.855002 3.37404 1.02779V1.996ZM5.3682 1.996C5.3682 2.16879 5.22872 2.30582 5.05958 2.30582C4.88746 2.30582 4.75096 2.16581 4.75096 1.996V1.02779C4.75096 0.855002 4.89043 0.717963 5.05958 0.717963C5.23169 0.717963 5.3682 0.857981 5.3682 1.02779V1.996Z" fill="#000"/>
<defs>
<linearGradient id="paint0_linear_2429_5058" x1="8.125" y1="1.03334" x2="8.125" y2="15.4375" gradientUnits="userSpaceOnUse">
<stop stop-color="#000"/>
<stop offset="0.828125" stop-color="#000"/>
<stop offset="1" stop-color="#000"/>
</linearGradient>
<linearGradient id="paint1_linear_2429_5058" x1="4.0625" y1="-2.21666" x2="4.0625" y2="12.1875" gradientUnits="userSpaceOnUse">
<stop stop-color="#000"/>
<stop offset="0.828125" stop-color="#000"/>
<stop offset="1" stop-color="#000"/>
</linearGradient>
</defs>
</svg>
