<svg width="24" height="24" viewBox="0 0 24 24" fill="none" xmlns="http://www.w3.org/2000/svg">
<g clip-path="url(#clip0)">
<g clip-path="url(#clip1)">
<path d="M7 6.99988H6C5.86193 6.99988 5.75 7.11181 5.75 7.24988V18.9999C5.75 19.1379 5.86193 19.2499 6 19.2499H7C7.13807 19.2499 7.25 19.1379 7.25 18.9999V7.24988C7.25 7.11181 7.13807 6.99988 7 6.99988Z" fill="black"/>
<path d="M9.5 6.99988H8.5C8.36193 6.99988 8.25 7.11181 8.25 7.24988V18.9999C8.25 19.1379 8.36193 19.2499 8.5 19.2499H9.5C9.63807 19.2499 9.75 19.1379 9.75 18.9999V7.24988C9.75 7.11181 9.63807 6.99988 9.5 6.99988Z" fill="black"/>
<path d="M4.5 6.99988H3.5C3.36193 6.99988 3.25 7.11181 3.25 7.24988V18.9999C3.25 19.1379 3.36193 19.2499 3.5 19.2499H4.5C4.63807 19.2499 4.75 19.1379 4.75 18.9999V7.24988C4.75 7.11181 4.63807 6.99988 4.5 6.99988Z" fill="black"/>
<path d="M9.30016 5.99985C9.34246 5.99994 9.38409 5.98929 9.42115 5.96891C9.45822 5.94852 9.48951 5.91907 9.51209 5.8833C9.53467 5.84753 9.5478 5.80662 9.55027 5.76439C9.55273 5.72216 9.54443 5.68 9.52616 5.64185L6.95116 0.282846C6.90507 0.204454 6.83931 0.139461 6.76038 0.0943032C6.68145 0.0491457 6.59209 0.0253906 6.50116 0.0253906C6.41022 0.0253906 6.32086 0.0491457 6.24193 0.0943032C6.16301 0.139461 6.09724 0.204454 6.05116 0.282846L3.47816 5.64185C3.46002 5.67969 3.45171 5.72149 3.45398 5.7634C3.45625 5.8053 3.46903 5.84596 3.49115 5.88162C3.51326 5.91729 3.544 5.94681 3.58053 5.96747C3.61706 5.98813 3.6582 5.99927 3.70016 5.99985H9.30016Z" fill="black"/>
<path d="M3.5 20.2499C3.4337 20.2499 3.37011 20.2762 3.32322 20.3231C3.27634 20.37 3.25 20.4336 3.25 20.4999V20.7499C3.25 21.6118 3.59241 22.4385 4.2019 23.048C4.8114 23.6575 5.63805 23.9999 6.5 23.9999C7.36195 23.9999 8.1886 23.6575 8.7981 23.048C9.40759 22.4385 9.75 21.6118 9.75 20.7499V20.4999C9.75 20.4336 9.72366 20.37 9.67678 20.3231C9.62989 20.2762 9.5663 20.2499 9.5 20.2499H3.5Z" fill="black"/>
<path d="M19.25 -0.00012207H14.25C13.8522 -0.00012207 13.4706 0.157913 13.1893 0.439218C12.908 0.720522 12.75 1.10205 12.75 1.49988V2.74988C12.75 2.81618 12.7763 2.87977 12.8232 2.92665C12.8701 2.97354 12.9337 2.99988 13 2.99988H14.75C14.8826 2.99988 15.0098 3.05256 15.1036 3.14632C15.1973 3.24009 15.25 3.36727 15.25 3.49988C15.25 3.63249 15.1973 3.75966 15.1036 3.85343C15.0098 3.9472 14.8826 3.99988 14.75 3.99988H13C12.9337 3.99988 12.8701 4.02622 12.8232 4.0731C12.7763 4.11999 12.75 4.18357 12.75 4.24988V6.74988C12.75 6.81618 12.7763 6.87977 12.8232 6.92665C12.8701 6.97354 12.9337 6.99988 13 6.99988H14.75C14.8826 6.99988 15.0098 7.05256 15.1036 7.14632C15.1973 7.24009 15.25 7.36727 15.25 7.49988C15.25 7.63249 15.1973 7.75966 15.1036 7.85343C15.0098 7.9472 14.8826 7.99988 14.75 7.99988H13C12.9337 7.99988 12.8701 8.02622 12.8232 8.0731C12.7763 8.11999 12.75 8.18357 12.75 8.24988V10.7499C12.75 10.8162 12.7763 10.8798 12.8232 10.9267C12.8701 10.9735 12.9337 10.9999 13 10.9999H14.75C14.8826 10.9999 15.0098 11.0526 15.1036 11.1463C15.1973 11.2401 15.25 11.3673 15.25 11.4999C15.25 11.6325 15.1973 11.7597 15.1036 11.8534C15.0098 11.9472 14.8826 11.9999 14.75 11.9999H13C12.9337 11.9999 12.8701 12.0262 12.8232 12.0731C12.7763 12.12 12.75 12.1836 12.75 12.2499V14.7499C12.75 14.8162 12.7763 14.8798 12.8232 14.9267C12.8701 14.9735 12.9337 14.9999 13 14.9999H14.75C14.8826 14.9999 15.0098 15.0526 15.1036 15.1463C15.1973 15.2401 15.25 15.3673 15.25 15.4999C15.25 15.6325 15.1973 15.7597 15.1036 15.8534C15.0098 15.9472 14.8826 15.9999 14.75 15.9999H13C12.9337 15.9999 12.8701 16.0262 12.8232 16.0731C12.7763 16.12 12.75 16.1836 12.75 16.2499V22.4999C12.75 22.8977 12.908 23.2792 13.1893 23.5605C13.4706 23.8418 13.8522 23.9999 14.25 23.9999H19.25C19.6478 23.9999 20.0294 23.8418 20.3107 23.5605C20.592 23.2792 20.75 22.8977 20.75 22.4999V1.49988C20.75 1.10205 20.592 0.720522 20.3107 0.439218C20.0294 0.157913 19.6478 -0.00012207 19.25 -0.00012207V-0.00012207ZM16.75 19.4999C16.9972 19.4999 17.2389 19.5732 17.4445 19.7105C17.65 19.8479 17.8102 20.0431 17.9049 20.2715C17.9995 20.4999 18.0242 20.7513 17.976 20.9937C17.9277 21.2362 17.8087 21.4589 17.6339 21.6338C17.4591 21.8086 17.2363 21.9276 16.9939 21.9759C16.7514 22.0241 16.5001 21.9993 16.2716 21.9047C16.0432 21.8101 15.848 21.6499 15.7107 21.4443C15.5733 21.2388 15.5 20.9971 15.5 20.7499C15.5005 20.4185 15.6324 20.1009 15.8667 19.8666C16.101 19.6323 16.4186 19.5004 16.75 19.4999Z" fill="black"/>
</g>
</g>
<defs>
<clipPath id="clip0">
<rect width="24" height="24" fill="white"/>
</clipPath>
<clipPath id="clip1">
<rect width="24" height="24" fill="white" transform="translate(0 -0.00012207)"/>
</clipPath>
</defs>
</svg>
