<svg xmlns="http://www.w3.org/2000/svg" width="13" height="16" viewBox="0 0 13 16">
    <g fill="none" fill-rule="evenodd">
        <g fill="#000" fill-rule="nonzero">
            <g>
                <path d="M11.184 11.531v-4.13c-.003-2.268-1.43-4.267-3.515-4.92.352-.72.172-1.6-.434-2.106C6.63-.13 5.767-.125 5.17.39c-.6.514-.769 1.396-.407 2.11-2.049.678-3.442 2.658-3.446 4.898v4.133l-1.18 1.44c-.143.171-.176.413-.086.618.091.206.289.337.506.336h3.553C4.19 15.095 5.124 16 6.25 16c1.126 0 2.06-.906 2.14-2.075h3.554c.217.001.415-.13.506-.336.09-.205.057-.447-.085-.617l-1.181-1.44z" transform="translate(-1060 -80) translate(1060 80)"/>
            </g>
        </g>
    </g>
</svg>
