<svg xmlns="http://www.w3.org/2000/svg" xmlns:xlink="http://www.w3.org/1999/xlink" width="16" height="16" viewBox="0 0 16 16">
    <defs>
        <path id="qzzved27ua" d="M920.39 79.547h-1.668v-.842c0-.378-.303-.705-.69-.705-.37 0-.69.31-.69.705v.842h-4.7v-.842c0-.378-.303-.705-.69-.705-.388 0-.69.31-.69.705v.842h-1.651c-1.449 0-2.611 1.203-2.611 2.664v9.125c0 1.478 1.179 2.664 2.61 2.664h10.78c1.448 0 2.61-1.203 2.61-2.664v-9.125c0-1.461-1.179-2.664-2.61-2.664zm-10.78 1.392h1.668v.842c0 .378.303.704.69.704.388 0 .69-.309.69-.704v-.842h4.717v.842c0 .378.303.704.69.704.37 0 .69-.309.69-.704v-.842h1.634c.691 0 1.247.567 1.247 1.272v1.632h-13.272v-1.632c0-.705.556-1.272 1.247-1.272zm10.78 11.669h-10.78c-.69 0-1.246-.567-1.246-1.272v-6.084h13.272v6.084c0 .705-.556 1.272-1.247 1.272z"/>
    </defs>
    <g fill="none" fill-rule="evenodd">
        <g fill-rule="nonzero">
            <g transform="translate(-907 -78)">
                <use fill="#747474" xlink:href="#qzzved27ua"/>
                <use fill="#000" xlink:href="#qzzved27ua"/>
            </g>
        </g>
    </g>
</svg>
