<svg xmlns="http://www.w3.org/2000/svg" width="16" height="16" viewBox="0 0 16 16">
    <g fill="none" fill-rule="evenodd">
        <g fill="#000" fill-rule="nonzero">
            <path d="M256.773 48.816c.882 0 1.596.712 1.596 1.592 0 .88-.714 1.592-1.596 1.592-.882 0-1.589-.713-1.589-1.592 0-.88.707-1.592 1.589-1.592zm8 0c.882 0 1.596.712 1.596 1.592 0 .88-.714 1.592-1.596 1.592-.882 0-1.589-.713-1.589-1.592 0-.88.707-1.592 1.589-1.592zM254.612 36l.76 1.595H267.2c.44 0 .8.355.8.797 0 .14-.036.271-.1.383l-2.86 5.175c-.276.49-.8.822-1.4.822h-5.96l-.716 1.3c-.016.027-.024.06-.024.095 0 .112.088.2.2.2h9.26v1.594h-9.6c-.884 0-1.6-.714-1.6-1.595 0-.279.072-.538.196-.77l1.08-1.953-2.876-6.048H252V36h2.612z" transform="translate(-252 -36)"/>
        </g>
    </g>
</svg>
