<svg xmlns="http://www.w3.org/2000/svg" width="15" height="16" viewBox="0 0 15 16">
    <g fill="none" fill-rule="evenodd">
        <g fill="#000" fill-rule="nonzero">
            <g>
                <g>
                    <path d="M4.387 12.683c-.811 0-1.46.655-1.46 1.463 0 .809.649 1.464 1.46 1.464.81 0 1.467-.655 1.467-1.464 0-.808-.657-1.463-1.467-1.463zM2.453 0l.713 1.548h11.107c.413 0 .751.344.751.774 0 .135-.033.263-.094.371l-2.685 5.024c-.26.476-.751.797-1.315.797H5.334L4.66 9.775c-.015.028-.022.058-.022.093 0 .109.082.194.188.194h8.695v1.548H4.507c-.83 0-1.502-.693-1.502-1.548 0-.271.067-.523.184-.747l1.014-1.896-2.7-5.871H0V0h2.453zm10.354 2.658h-8.55c-.047 0-.094.009-.139.026-.2.077-.302.302-.225.504L5.37 7.053c.058.151.203.25.365.25h5.239c.15 0 .288-.086.352-.222l1.835-3.865c.025-.052.038-.11.038-.167 0-.216-.175-.39-.39-.39zM11.216 12.683c-.81 0-1.46.655-1.46 1.463 0 .809.65 1.464 1.46 1.464.81 0 1.467-.655 1.467-1.464 0-.808-.657-1.463-1.467-1.463z" transform="translate(-286 -80) translate(286 80)"/>
                </g>
            </g>
        </g>
    </g>
</svg>
