<svg width="22" height="22" viewBox="0 0 22 22" fill="none" xmlns="http://www.w3.org/2000/svg">
<rect x="0.5" y="0.5" width="21" height="21" rx="4.5" fill="#FF0000" stroke="#FF0000"/>
<path d="M4.43241 9.91578H4.43223H3.14735C2.89556 9.91578 2.7635 10.2059 2.91313 10.3983L2.91318 10.3983L7.94791 16.8657L7.94796 16.8658C8.24353 17.245 8.81189 17.2443 9.10884 16.8662L9.10924 16.8657L18.086 5.33176C18.0861 5.33157 18.0863 5.33137 18.0864 5.33118C18.2385 5.13846 18.1019 4.85 17.8527 4.85H16.5678C16.3413 4.85 16.1265 4.9553 15.9878 5.13557C15.9877 5.13571 15.9876 5.13584 15.9875 5.13598L8.52767 14.7178L5.01206 10.2011C5.01205 10.2011 5.01204 10.2011 5.01203 10.2011C4.94321 10.1125 4.85536 10.0407 4.75496 9.99123C4.65454 9.94174 4.54426 9.91591 4.43241 9.91578Z" fill="white" stroke="white" stroke-width="0.3"/>
</svg>
