<svg width="16" height="18" viewBox="0 0 16 18" fill="none" xmlns="http://www.w3.org/2000/svg">
<path d="M1.56046 3.12787L1.56 12.75C1.56 14.7382 3.1692 16.3651 5.20357 16.492L5.46 16.5L12.3465 16.5011C12.0249 17.3744 11.1584 18 10.14 18H4.68C2.09531 18 0 15.9853 0 13.5V5.25C0 4.27017 0.651368 3.43663 1.56046 3.12787ZM13.26 0C14.5523 0 15.6 1.00736 15.6 2.25V12.75C15.6 13.9926 14.5523 15 13.26 15H5.46C4.16765 15 3.12 13.9926 3.12 12.75V2.25C3.12 1.00736 4.16765 0 5.46 0H13.26ZM13.26 1.5H5.46C5.02922 1.5 4.68 1.83579 4.68 2.25V12.75C4.68 13.1642 5.02922 13.5 5.46 13.5H13.26C13.6908 13.5 14.04 13.1642 14.04 12.75V2.25C14.04 1.83579 13.6908 1.5 13.26 1.5Z" fill="#ED1C24"/>
</svg>
