<svg width="13" height="13" viewBox="0 0 13 13" fill="none" xmlns="http://www.w3.org/2000/svg">
<path d="M12.6421 10.9196L8.2225 6.5L12.6421 2.08037C13.1193 1.60321 13.1193 0.835025 12.6421 0.357868C12.165 -0.119289 11.3968 -0.119289 10.9196 0.357868L6.5 4.7775L2.08037 0.357868C1.60321 -0.119289 0.835025 -0.119289 0.357868 0.357868C-0.119289 0.835025 -0.119289 1.60321 0.357868 2.08037L4.7775 6.5L0.357868 10.9196C-0.119289 11.3968 -0.119289 12.165 0.357868 12.6421C0.835025 13.1193 1.60321 13.1193 2.08037 12.6421L6.5 8.2225L10.9196 12.6421C11.3968 13.1193 12.165 13.1193 12.6421 12.6421C13.1159 12.165 13.1159 11.3934 12.6421 10.9196Z" fill="black"/>
</svg>
