<svg xmlns="http://www.w3.org/2000/svg" width="43" height="25" viewBox="0 0 43 25">
    <g fill="none" fill-rule="evenodd">
        <g>
            <g>
                <g>
                    <g transform="translate(-266 -916) translate(0 891) translate(267 26)">
                        <rect width="40" height="22" x=".5" y=".5" fill="#BE202D" stroke="#FFF" stroke-linejoin="square" rx="5"/>
                        <rect width="42" height="24" x="-.5" y="-.5" stroke="#BE202D" rx="5"/>
                    </g>
                    <path fill="#FFF" fill-rule="nonzero" d="M11.52 15.23c.847 0 1.59-.223 2.23-.67.113-.08.195-.168.245-.265.05-.097.075-.215.075-.355 0-.207-.058-.382-.175-.525-.117-.143-.258-.215-.425-.215-.093 0-.173.013-.24.04-.067.027-.17.077-.31.15-.293.133-.533.232-.72.295-.187.063-.38.095-.58.095-.593 0-1.035-.178-1.325-.535-.29-.357-.435-.902-.435-1.635 0-.727.145-1.268.435-1.625.29-.357.732-.535 1.325-.535.22 0 .433.03.64.09.207.06.427.16.66.3.107.067.2.115.28.145.08.03.17.045.27.045.167 0 .308-.072.425-.215.117-.143.175-.318.175-.525 0-.147-.025-.267-.075-.36-.05-.093-.132-.18-.245-.26-.64-.447-1.383-.67-2.23-.67-.707 0-1.325.147-1.855.44-.53.293-.94.713-1.23 1.26-.29.547-.435 1.183-.435 1.91 0 .733.145 1.373.435 1.92.29.547.7.967 1.23 1.26.53.293 1.148.44 1.855.44zm8.63 0c.713 0 1.335-.148 1.865-.445.53-.297.938-.717 1.225-1.26.287-.543.43-1.182.43-1.915 0-.733-.142-1.372-.425-1.915-.283-.543-.69-.962-1.22-1.255-.53-.293-1.155-.44-1.875-.44s-1.345.147-1.875.44c-.53.293-.938.712-1.225 1.255-.287.543-.43 1.182-.43 1.915 0 .733.143 1.372.43 1.915.287.543.695.963 1.225 1.26.53.297 1.155.445 1.875.445zm0-1.41c-.533 0-.95-.187-1.25-.56-.3-.373-.45-.923-.45-1.65 0-.727.15-1.275.45-1.645.3-.37.717-.555 1.25-.555.527 0 .942.187 1.245.56.303.373.455.92.455 1.64 0 .72-.15 1.268-.45 1.645-.3.377-.717.565-1.25.565zm9.48 1.32c.787 0 1.462-.14 2.025-.42.563-.28.993-.685 1.29-1.215.297-.53.445-1.162.445-1.895 0-.727-.15-1.353-.45-1.88-.3-.527-.732-.932-1.295-1.215-.563-.283-1.235-.425-2.015-.425h-2.02c-.273 0-.483.073-.63.22-.147.147-.22.357-.22.63v5.35c0 .273.073.483.22.63.147.147.357.22.63.22h2.02zm-.13-1.48h-.9V9.57h.9c.687 0 1.202.167 1.545.5.343.333.515.847.515 1.54 0 .693-.172 1.208-.515 1.545-.343.337-.858.505-1.545.505z" transform="translate(-266 -916) translate(0 891) translate(267 26)"/>
                </g>
            </g>
        </g>
    </g>
</svg>
