<svg width="18" height="18" viewBox="0 0 18 18" fill="none" xmlns="http://www.w3.org/2000/svg">
<path d="M15.5 8.24167V8C15.5 7.58333 15.4667 7.16667 15.3917 6.75C15.1667 6.33333 14.6667 6.33333 14.6667 6.33333H13V5.5C13 4.66667 12.1667 4.66667 12.1667 4.66667H10.5V3.83333C10.5 3 9.66667 3 9.66667 3H8.83333V1.33333C8.83333 0.5 8 0.5 8 0.5C6.01088 0.5 4.10322 1.29018 2.6967 2.6967C1.29018 4.10322 0.5 6.01088 0.5 8C0.5 9.98912 1.29018 11.8968 2.6967 13.3033C4.10322 14.7098 6.01088 15.5 8 15.5H8.24167C8.08507 14.9582 8.00375 14.3973 8 13.8333V13.4917C7.79167 13.7 7.5 13.8333 7.16667 13.8333C6.475 13.8333 5.91667 13.275 5.91667 12.5833C5.91667 11.8917 6.475 11.3333 7.16667 11.3333C7.65833 11.3333 8.08333 11.625 8.28333 12.0333C8.66401 10.8611 9.40603 9.83951 10.403 9.11496C11.4 8.3904 12.6009 8.0001 13.8333 8C14.4083 8 14.9667 8.09167 15.5 8.24167ZM3.41667 8.83333C2.725 8.83333 2.16667 8.275 2.16667 7.58333C2.16667 6.89167 2.725 6.33333 3.41667 6.33333C4.10833 6.33333 4.66667 6.89167 4.66667 7.58333C4.66667 8.275 4.10833 8.83333 3.41667 8.83333ZM5.91667 5.5C5.225 5.5 4.66667 4.94167 4.66667 4.25C4.66667 3.55833 5.225 3 5.91667 3C6.60833 3 7.16667 3.55833 7.16667 4.25C7.16667 4.94167 6.60833 5.5 5.91667 5.5ZM7.58333 9.66667C6.89167 9.66667 6.33333 9.10833 6.33333 8.41667C6.33333 7.725 6.89167 7.16667 7.58333 7.16667C8.275 7.16667 8.83333 7.725 8.83333 8.41667C8.83333 9.10833 8.275 9.66667 7.58333 9.66667ZM16.9167 14.3333V13.5L17.8333 12.8333C17.9167 12.75 18 12.6667 17.9167 12.5833L17.0833 11.1667C17.0833 11.0833 16.9167 11.0833 16.8333 11.0833L15.8333 11.5C15.5833 11.3333 15.3333 11.1667 15.0833 11.0833L14.9167 10C14.9167 9.91667 14.8333 9.83333 14.75 9.83333H13.0833C12.9167 9.83333 12.8333 9.91667 12.8333 10L12.6667 11.0833C12.4167 11.25 12.25 11.3333 12 11.5L11 11.0833C10.9167 11.0833 10.8333 11.0833 10.75 11.1667L9.91667 12.5833C9.91667 12.6667 9.91667 12.75 10 12.8333L10.9167 13.5V14.3333L10 15C9.91667 15.0833 9.83333 15.1667 9.91667 15.25L10.75 16.6667C10.8333 16.75 10.9167 16.75 11 16.75L12 16.3333C12.1667 16.5 12.4167 16.6667 12.6667 16.75L12.8333 17.8333C12.9167 17.9167 13 18 13.0833 18H14.75C14.8333 18 14.9167 17.9167 14.9167 17.8333L15.0833 16.75C15.3333 16.5833 15.5 16.5 15.75 16.3333L16.75 16.6667C16.8333 16.6667 16.9167 16.6667 17 16.5833L17.8333 15.1667C17.9167 15.0833 17.9167 15 17.8333 15L16.9167 14.3333ZM13.8333 15.0833C13.1667 15.0833 12.5833 14.5 12.5833 13.8333C12.5833 13.1667 13.1667 12.5833 13.8333 12.5833C14.5 12.5833 15.0833 13.1667 15.0833 13.8333C15.0833 14.5 14.5 15.0833 13.8333 15.0833Z" fill="#2B2B2B"/>
</svg>
