<svg xmlns="http://www.w3.org/2000/svg" width="28" height="28" viewBox="0 0 28 28">
    <g fill="none" fill-rule="evenodd">
        <g>
            <g transform="translate(-229 -282) translate(229 282)">
                <circle cx="14" cy="14" r="13" fill="#FFF" stroke="#BE202D" stroke-width="2"/>
                <path fill="#BE202D" fill-rule="nonzero" d="M15.024 21.813c2.092 0 4.007-.792 5.747-2.375l-1.353-1.203c-1.418 1.254-2.883 1.88-4.394 1.88-1.647 0-3.07-.598-4.27-1.794-1.2-1.196-1.799-2.667-1.799-4.415 0-1.733.6-3.2 1.8-4.399 1.199-1.2 2.622-1.799 4.27-1.799 1.51 0 2.975.627 4.393 1.88l1.353-1.203C19.031 6.795 17.116 6 15.024 6c-2.248 0-4.148.78-5.698 2.342C7.776 9.903 7 11.758 7 13.906c0 2.17.775 4.03 2.326 5.58 1.55 1.551 3.45 2.326 5.698 2.326z"/>
            </g>
        </g>
    </g>
</svg>
