<svg width="21" height="17" viewBox="0 0 21 17" fill="none" xmlns="http://www.w3.org/2000/svg">
<path fill-rule="evenodd" clip-rule="evenodd" d="M13.9091 0.772695C13.9091 0.345965 13.5631 0 13.1364 0C10.7017 0 3.20743 0 0.772788 0C0.345965 0 0 0.345965 0 0.772695C0 3.24777 0 10.8181 0 10.8181H13.9091V0.772695Z" fill="#ED1C24"/>
<path fill-rule="evenodd" clip-rule="evenodd" d="M8.88641 0H5.02275V3.95398C5.02275 4.09316 5.09758 4.22159 5.21877 4.29011C5.33988 4.35873 5.48852 4.35688 5.60786 4.2852C5.99833 4.05097 6.48756 3.75749 6.75582 3.59651C6.87813 3.52307 7.03103 3.52307 7.15334 3.59651C7.4216 3.75749 7.91083 4.05097 8.30121 4.2852C8.42064 4.35688 8.56928 4.35873 8.69038 4.29011C8.81149 4.22159 8.88641 4.09316 8.88641 3.95398C8.88641 2.66488 8.88641 0 8.88641 0ZM13.9091 10.8181H0V13.5227C0 13.9325 0.162829 14.3256 0.452694 14.6155C0.742466 14.9053 1.13563 15.0682 1.54548 15.0682C5.28776 15.0682 15.5758 15.0682 19.3182 15.0682C19.7281 15.0682 20.1211 14.9053 20.411 14.6155C20.7008 14.3256 20.8636 13.9325 20.8636 13.5227C20.8636 12.3073 20.8636 8.88632 20.8636 8.88632C20.8636 8.88632 18.3816 4.74957 17.6115 3.46605C17.4718 3.2333 17.2203 3.09087 16.9488 3.09087C16.0146 3.09087 13.9091 3.09087 13.9091 3.09087V10.8181Z" fill="#FFCDCF"/>
<path d="M16.6134 17.0003C17.6803 17.0003 18.5452 16.1354 18.5452 15.0685C18.5452 14.0016 17.6803 13.1367 16.6134 13.1367C15.5465 13.1367 14.6816 14.0016 14.6816 15.0685C14.6816 16.1354 15.5465 17.0003 16.6134 17.0003Z" fill="#ED1C24"/>
<path d="M4.25002 17.0003C5.31692 17.0003 6.1818 16.1354 6.1818 15.0685C6.1818 14.0016 5.31692 13.1367 4.25002 13.1367C3.18313 13.1367 2.31824 14.0016 2.31824 15.0685C2.31824 16.1354 3.18313 17.0003 4.25002 17.0003Z" fill="#ED1C24"/>
</svg>
