<svg width="28" height="28" viewBox="0 0 28 28" fill="none" xmlns="http://www.w3.org/2000/svg">
<path d="M13.8929 8.89258C11.1304 8.89258 8.89288 11.1301 8.89288 13.8926C8.89288 16.6551 11.1304 18.8926 13.8929 18.8926C16.6554 18.8926 18.8929 16.6551 18.8929 13.8926C18.8929 11.1301 16.6554 8.89258 13.8929 8.89258ZM25.0679 12.6426C24.4929 7.43008 20.3554 3.29258 15.1429 2.71758V1.39258C15.1429 0.705078 14.5804 0.142578 13.8929 0.142578C13.2054 0.142578 12.6429 0.705078 12.6429 1.39258V2.71758C7.43038 3.29258 3.29288 7.43008 2.71788 12.6426H1.39288C0.705383 12.6426 0.142883 13.2051 0.142883 13.8926C0.142883 14.5801 0.705383 15.1426 1.39288 15.1426H2.71788C3.29288 20.3551 7.43038 24.4926 12.6429 25.0676V26.3926C12.6429 27.0801 13.2054 27.6426 13.8929 27.6426C14.5804 27.6426 15.1429 27.0801 15.1429 26.3926V25.0676C20.3554 24.4926 24.4929 20.3551 25.0679 15.1426H26.3929C27.0804 15.1426 27.6429 14.5801 27.6429 13.8926C27.6429 13.2051 27.0804 12.6426 26.3929 12.6426H25.0679ZM13.8929 22.6426C9.05538 22.6426 5.14288 18.7301 5.14288 13.8926C5.14288 9.05508 9.05538 5.14258 13.8929 5.14258C18.7304 5.14258 22.6429 9.05508 22.6429 13.8926C22.6429 18.7301 18.7304 22.6426 13.8929 22.6426Z" fill="white"/>
</svg>
