<svg width="24" height="24" viewBox="0 0 24 24" fill="none" xmlns="http://www.w3.org/2000/svg">
<path d="M18.8751 9.48975H6.12519C6.01248 9.48975 5.90438 9.53368 5.82467 9.61188C5.74497 9.69009 5.7002 9.79615 5.7002 9.90675V20.3319C5.7002 20.7743 5.8793 21.1985 6.19811 21.5114C6.51692 21.8242 6.94932 21.9999 7.40019 21.9999H17.6001C18.051 21.9999 18.4834 21.8242 18.8022 21.5114C19.121 21.1985 19.3001 20.7743 19.3001 20.3319V9.90675C19.3001 9.79615 19.2554 9.69009 19.1757 9.61188C19.0959 9.53368 18.9878 9.48975 18.8751 9.48975ZM11.0127 19.0809C11.0127 19.2468 10.9455 19.4059 10.826 19.5232C10.7064 19.6405 10.5442 19.7064 10.3752 19.7064C10.2061 19.7064 10.0439 19.6405 9.92439 19.5232C9.80484 19.4059 9.73768 19.2468 9.73768 19.0809V11.8875C9.73768 11.7216 9.80484 11.5625 9.92439 11.4452C10.0439 11.3279 10.2061 11.262 10.3752 11.262C10.5442 11.262 10.7064 11.3279 10.826 11.4452C10.9455 11.5625 11.0127 11.7216 11.0127 11.8875V19.0809ZM15.2626 19.0809C15.2626 19.2468 15.1955 19.4059 15.0759 19.5232C14.9564 19.6405 14.7942 19.7064 14.6252 19.7064C14.4561 19.7064 14.2939 19.6405 14.1744 19.5232C14.0548 19.4059 13.9877 19.2468 13.9877 19.0809V11.8875C13.9877 11.7216 14.0548 11.5625 14.1744 11.4452C14.2939 11.3279 14.4561 11.262 14.6252 11.262C14.7942 11.262 14.9564 11.3279 15.0759 11.4452C15.1955 11.5625 15.2626 11.7216 15.2626 11.8875V19.0809Z" fill="black"/>
<path d="M20.0837 6.03776C18.9807 5.53397 17.7935 5.2313 16.58 5.14453C16.3565 4.24754 15.8326 3.4501 15.0924 2.87994C14.3521 2.30978 13.4382 1.99988 12.4971 1.99988C11.556 1.99988 10.6421 2.30978 9.90178 2.87994C9.16149 3.4501 8.63763 4.24754 8.41411 5.14453C7.23595 5.23617 6.08251 5.52531 5.00393 5.99939C4.72104 6.11707 4.47722 6.30985 4.29989 6.55604C4.12255 6.80224 4.01872 7.0921 4.00008 7.39302C3.99851 7.50353 4.01933 7.61323 4.06134 7.71577C4.10335 7.81831 4.16571 7.91163 4.24479 7.99032C4.32388 8.06901 4.41812 8.13149 4.52203 8.17413C4.62594 8.21677 4.73745 8.23872 4.85008 8.23871H20.15C20.3732 8.23873 20.5875 8.15259 20.7466 7.99887C20.9056 7.84516 20.9967 7.63623 21 7.41721C20.9932 7.12639 20.9039 6.84319 20.742 6.59949C20.5801 6.35578 20.3521 6.16124 20.0837 6.03776ZM12.4805 3.66833C12.9397 3.65958 13.3923 3.77762 13.7865 4.00898C14.1807 4.24035 14.5007 4.57573 14.71 4.97689C13.238 4.89269 11.7621 4.89269 10.2901 4.97689C10.4925 4.57852 10.8055 4.24434 11.1931 4.01284C11.5806 3.78133 12.0268 3.66191 12.4805 3.66833Z" fill="black"/>
</svg>
