<svg width="35" height="35" viewBox="0 0 35 35" fill="none" xmlns="http://www.w3.org/2000/svg">
<g clip-path="url(#clip0_3676_11438)">
<path d="M17.5 19.6875C18.7081 19.6875 19.6875 18.7081 19.6875 17.5C19.6875 16.2919 18.7081 15.3125 17.5 15.3125C16.2919 15.3125 15.3125 16.2919 15.3125 17.5C15.3125 18.7081 16.2919 19.6875 17.5 19.6875Z" fill="#979797"/>
<path d="M8.75 19.6875C9.95812 19.6875 10.9375 18.7081 10.9375 17.5C10.9375 16.2919 9.95812 15.3125 8.75 15.3125C7.54188 15.3125 6.5625 16.2919 6.5625 17.5C6.5625 18.7081 7.54188 19.6875 8.75 19.6875Z" fill="#979797"/>
<path d="M26.25 19.6875C27.4581 19.6875 28.4375 18.7081 28.4375 17.5C28.4375 16.2919 27.4581 15.3125 26.25 15.3125C25.0419 15.3125 24.0625 16.2919 24.0625 17.5C24.0625 18.7081 25.0419 19.6875 26.25 19.6875Z" fill="#979797"/>
</g>
<defs>
<clipPath id="clip0_3676_11438">
<rect width="35" height="35" fill="white"/>
</clipPath>
</defs>
</svg>
