<svg xmlns="http://www.w3.org/2000/svg" width="16" height="16" viewBox="0 0 16 16">
    <g fill="none" fill-rule="evenodd">
        <g fill="#747474" fill-rule="nonzero">
            <g>
                <g>
                    <g>
                        <path d="M15.025 1.395l-1.02-1.02c-.5-.5-1.32-.5-1.82 0l-1.178 1.178 2.842 2.84 1.177-1.178c.5-.5.5-1.32 0-1.82zM1.757 10.803c-.5.502-1.071 1.467-1.268 2.149l-.439 1.52c-.196.68.2 1.076.88.88l1.52-.44c.68-.195 1.646-.767 2.147-1.267l8.378-8.377-2.842-2.84-8.376 8.375z" transform="translate(-328 -140) translate(0 122) translate(16 16) translate(312 2)"/>
                    </g>
                </g>
            </g>
        </g>
    </g>
</svg>
