<svg xmlns="http://www.w3.org/2000/svg" xmlns:xlink="http://www.w3.org/1999/xlink" viewBox="0 0 1029.87 1029.87"><defs><style>.cls-1,.cls-4{fill:none;}.cls-2{fill:#fbefef;}.cls-3{clip-path:url(#clip-path);}.cls-4{stroke-miterlimit:10;stroke-width:12px;stroke:url(#linear-gradient);}.cls-5{fill:url(#linear-gradient-2);}.cls-6{fill:url(#linear-gradient-3);}.cls-7{fill:url(#linear-gradient-4);}.cls-8{fill:#bd8a18;}.cls-9{fill:#db0e0e;}.cls-10{fill:url(#linear-gradient-5);}.cls-11{fill:url(#linear-gradient-6);}</style><clipPath id="clip-path" transform="translate(-5.3 -0.38)"><path class="cls-1" d="M0,514.33c0,284,230.27,514.3,514.32,514.3s514.32-230.27,514.32-514.3S798.37,0,514.32,0,0,230.26,0,514.33"/></clipPath><linearGradient id="linear-gradient" x1="305.66" y1="464.63" x2="725.47" y2="464.63" gradientUnits="userSpaceOnUse"><stop offset="0.01" stop-color="#ff2f28"/><stop offset="0.89" stop-color="#ff6d64"/></linearGradient><linearGradient id="linear-gradient-2" x1="517.18" y1="335.95" x2="517.18" y2="-76.1" xlink:href="#linear-gradient"/><linearGradient id="linear-gradient-3" x1="418.79" y1="631.47" x2="596.66" y2="631.47" xlink:href="#linear-gradient"/><linearGradient id="linear-gradient-4" x1="505.97" y1="945.49" x2="496.1" y2="471.23" xlink:href="#linear-gradient"/><linearGradient id="linear-gradient-5" x1="365.53" y1="705.98" x2="483.87" y2="705.98" xlink:href="#linear-gradient"/><linearGradient id="linear-gradient-6" x1="512.71" y1="702.81" x2="642.79" y2="702.81" gradientTransform="matrix(-1, 0, 0, 1, 1166.23, -0.38)" xlink:href="#linear-gradient"/></defs><g id="Layer_2" data-name="Layer 2"><g id="Layer_1-2" data-name="Layer 1"><circle class="cls-2" cx="520.23" cy="515.31" r="514.93" transform="translate(-217.31 518.41) rotate(-45)"/><g class="cls-3"><path class="cls-4" d="M704.57,405.06a45.22,45.22,0,0,0-13-3.81C709.82,284.91,701.84,140.37,511.34,146,397.67,149.4,363.83,253.64,356.51,362.66c-6.23-3.23-14.58-4.15-25.77-.79C291.5,373.64,318.68,472.8,359.33,488.1c5.37,35.45,15.51,66.36,29.75,91.71l-7.75,106.32s123.09,216.83,259.49,3L630.14,583.38a314.15,314.15,0,0,0,29.41-56.78C702,517.16,742.06,421.86,704.57,405.06Z" transform="translate(-5.3 -0.38)"/><path class="cls-5" d="M715.79,238.21c-15.62-34.85-44.22-63.42-77.07-82.32C591,128.4,529.44,113,475.23,120.47c-39.72,5.49-97.24,1-116,46.44-3.07,7.48,1.35,45.34-2.76,47.94-1,.63-50.82,32.08-44.85,54.8,6,23,19.08,92.22,19.08,92.22s17.91-5.56,25.78.83c0,0,12.17,43.34,10.9,79L384,449.38V346.13s47.17-28,44.62-81.58c65.48,3.55,139.28,11.39,205.25,32.12-2.52,20.23-2.17,55.61,29.29,63.09v71.77l9.66,6.37s5.63-28.28,21-36.16l16.41-72.32h0C719.45,295.32,731.07,272.26,715.79,238.21Z" transform="translate(-5.3 -0.38)"/><path class="cls-6" d="M510.93,658.4c-2.61,0-5.25-.11-7.88-.31-32.69-2.47-61.39-17.81-83-44.4a5.62,5.62,0,0,1,8.74-7.08c19.6,24.13,45.59,38,75.1,40.28,30.49,2.13,58.69-9.94,83-36.41a5.63,5.63,0,0,1,8.31,7.61c-24.34,26.47-53.33,40.31-84.26,40.31" transform="translate(-5.3 -0.38)"/><path class="cls-7" d="M942.75,938C874.33,776,775.17,713.14,775.17,713.14l-124-25.3-131.57,64.4L507.72,776l-11.87-23.74L381.33,686.13l-141,27S141.13,776,72.7,938c0,0-16.76,62.84-19.55,92.16H962.3c-2.79-29.32-19.55-92.16-19.55-92.16" transform="translate(-5.3 -0.38)"/><path class="cls-8" d="M581.3,916.47c0-.11-.09-.19-.13-.3s0,.11.13.3" transform="translate(-5.3 -0.38)"/><path class="cls-8" d="M586.77,918.66c-.57,0-1.12,0-1.62-.08a11.69,11.69,0,0,0,2.36.08,4.57,4.57,0,0,1-.74,0" transform="translate(-5.3 -0.38)"/><polygon class="cls-9" points="487.31 700.19 502.42 743.94 507.47 775.61 510.59 743.02 523 700.19 555.74 747.66 510.12 793.29 452.88 746.74 487.31 700.19"/><polygon class="cls-10" points="373.56 648.98 483.87 701.53 455.94 762.98 365.53 690.25 373.56 648.98"/><polygon class="cls-11" points="637.45 646.65 523.43 696.75 551.36 758.2 653.52 693.25 637.45 646.65"/><polygon class="cls-2" points="631.9 908.45 632.56 948.5 672.56 924.5 713.23 949.17 712.27 884.89 672.39 908.14 632.02 885.17 631.9 908.45"/><path class="cls-2" d="M677.69,773.65l-55.16,31.18v66.09l55.16,31.39,55.53-32.38,1.32-65.1Zm-6.75,97.26-23.41-21,11.83-13.19,10.22,9.14,30-33.49,13.21,11.83Z" transform="translate(-5.3 -0.38)"/></g></g></g></svg>