<svg width="24" height="24" viewBox="0 0 24 24" fill="none" xmlns="http://www.w3.org/2000/svg">
<path d="M21.92 9.21801C21.7323 8.7179 21.2514 8.38562 20.7131 8.38404H15.4881C15.3059 8.38417 15.1434 8.27021 15.0829 8.09981L13.2073 2.82965C12.9583 2.16932 12.2164 1.83417 11.5503 2.08107C11.2012 2.21048 10.9258 2.48353 10.7952 2.82965L10.7909 2.84327L8.91964 8.09981C8.85924 8.26992 8.69724 8.38381 8.51533 8.38404H3.28856C2.57745 8.38351 2.00054 8.95458 2 9.65956C1.99971 10.0381 2.16892 10.3973 2.46193 10.64L6.91185 14.2992C7.04809 14.4113 7.10093 14.5948 7.0449 14.7613L5.17531 20.3191C4.95044 20.9879 5.31503 21.7108 5.98966 21.9338C6.38583 22.0647 6.82144 21.997 7.15821 21.7522L11.7472 18.4163C11.8982 18.3066 12.1035 18.3066 12.2545 18.4163L16.8418 21.7513C17.4145 22.1692 18.2205 22.0478 18.642 21.48C18.8902 21.1458 18.9589 20.7128 18.8264 20.3191L16.9568 14.7579C16.9008 14.5914 16.9536 14.4079 17.0898 14.2958L21.5484 10.6315C21.9588 10.2841 22.1072 9.71983 21.92 9.21801Z" fill="black"/>
</svg>
