<svg xmlns="http://www.w3.org/2000/svg" width="16" height="16" viewBox="0 0 16 16">
    <g fill="none" fill-rule="evenodd">
        <g>
            <g>
                <g transform="translate(-446 -80) translate(446 80)">
                    <circle cx="8" cy="8" r="7.333" stroke="#000" stroke-width="1.333"/>
                    <path fill="#000" fill-rule="nonzero" d="M7.874 9.552c.128 0 .234-.034.318-.102.084-.068.138-.166.162-.294.04-.288.142-.546.306-.774.164-.228.41-.51.738-.846.384-.384.676-.73.876-1.038.2-.308.3-.67.3-1.086 0-.384-.106-.724-.318-1.02-.212-.296-.508-.528-.888-.696-.38-.168-.814-.252-1.302-.252-.464 0-.924.082-1.38.246-.456.164-.852.39-1.188.678-.192.144-.288.332-.288.564 0 .168.05.314.15.438.1.124.218.186.354.186.128 0 .292-.056.492-.168.352-.232.66-.41.924-.534.264-.124.54-.186.828-.186.336 0 .602.078.798.234.196.156.294.366.294.63 0 .24-.056.456-.168.648-.112.192-.288.432-.528.72-.304.36-.536.692-.696.996-.16.304-.24.676-.24 1.116 0 .168.042.3.126.396.084.096.194.144.33.144zm.024 2.52c.248 0 .458-.086.63-.258.172-.172.258-.386.258-.642s-.084-.47-.252-.642c-.168-.172-.38-.258-.636-.258s-.468.086-.636.258c-.168.172-.252.386-.252.642s.084.47.252.642c.168.172.38.258.636.258z"/>
                </g>
            </g>
        </g>
    </g>
</svg>
