<svg xmlns="http://www.w3.org/2000/svg" xmlns:xlink="http://www.w3.org/1999/xlink" viewBox="0 0 125.08 88.84"><defs><style>.cls-1{fill:url(#linear-gradient);}.cls-2{fill:url(#linear-gradient-2);}.cls-3{fill:url(#linear-gradient-3);}.cls-4{fill:url(#linear-gradient-4);}</style><linearGradient id="linear-gradient" x1="9.41" y1="-11.41" x2="9.41" y2="241.26" gradientUnits="userSpaceOnUse"><stop offset="0.01" stop-color="#ff2f28"/><stop offset="0.89" stop-color="#ff6d64"/></linearGradient><linearGradient id="linear-gradient-2" x1="9.41" y1="-11.41" x2="9.41" y2="241.26" xlink:href="#linear-gradient"/><linearGradient id="linear-gradient-3" x1="74.55" y1="-11.41" x2="74.55" y2="241.27" xlink:href="#linear-gradient"/><linearGradient id="linear-gradient-4" x1="74.55" y1="-11.41" x2="74.55" y2="241.26" xlink:href="#linear-gradient"/></defs><g id="Layer_2" data-name="Layer 2"><g id="Layer_1-2" data-name="Layer 1"><path class="cls-1" d="M18.82,23.59V0h-13A5.79,5.79,0,0,0,0,5.79V15.92Z"/><path class="cls-2" d="M0,21.55v61.5a5.79,5.79,0,0,0,5.79,5.79h13V29.21Z"/><path class="cls-3" d="M119.29,0H24V24.86H125.08V5.79A5.79,5.79,0,0,0,119.29,0Z"/><path class="cls-4" d="M24,88.84h95.26a5.79,5.79,0,0,0,5.79-5.79v-53H24Z"/></g></g></svg>