<svg width="20" height="20" viewBox="0 0 20 20" fill="none" xmlns="http://www.w3.org/2000/svg">
<path d="M10 0C15.5228 0 20 4.47715 20 10C20 15.5228 15.5228 20 10 20C4.47715 20 0 15.5228 0 10C0 4.47715 4.47715 0 10 0ZM10 13.3333C9.30964 13.3333 8.75 13.893 8.75 14.5833C8.75 15.2737 9.30964 15.8333 10 15.8333C10.6904 15.8333 11.25 15.2737 11.25 14.5833C11.25 13.893 10.6904 13.3333 10 13.3333ZM10 4.16667C9.5909 4.16667 9.25065 4.46146 9.18009 4.85021L9.16667 5V10.8333L9.18009 10.9831C9.25065 11.3719 9.5909 11.6667 10 11.6667C10.4091 11.6667 10.7493 11.3719 10.8199 10.9831L10.8333 10.8333V5L10.8199 4.85021C10.7493 4.46146 10.4091 4.16667 10 4.16667Z" fill="#333333"/>
</svg>
