<svg width="24" height="24" viewBox="0 0 24 24" fill="none" xmlns="http://www.w3.org/2000/svg">
<g clip-path="url(#clip0)">
<path d="M3.25 15.2499C5.04493 15.2499 6.5 13.7948 6.5 11.9999C6.5 10.205 5.04493 8.74988 3.25 8.74988C1.45507 8.74988 0 10.205 0 11.9999C0 13.7948 1.45507 15.2499 3.25 15.2499Z" fill="black"/>
<path d="M12 15.2499C13.7949 15.2499 15.25 13.7948 15.25 11.9999C15.25 10.205 13.7949 8.74988 12 8.74988C10.2051 8.74988 8.75 10.205 8.75 11.9999C8.75 13.7948 10.2051 15.2499 12 15.2499Z" fill="black"/>
<path d="M20.75 15.2499C22.5449 15.2499 24 13.7948 24 11.9999C24 10.205 22.5449 8.74988 20.75 8.74988C18.9551 8.74988 17.5 10.205 17.5 11.9999C17.5 13.7948 18.9551 15.2499 20.75 15.2499Z" fill="black"/>
</g>
<defs>
<clipPath id="clip0">
<rect width="24" height="24" fill="white"/>
</clipPath>
</defs>
</svg>
