<svg xmlns="http://www.w3.org/2000/svg" xmlns:xlink="http://www.w3.org/1999/xlink" width="16" height="16" viewBox="0 0 16 16">
    <defs>
        <path id="ajtgj2vr4a" d="M301.372 36c-.265.283-.428.66-.428 1.075v13.85c0 .593-.482 1.075-1.075 1.075-.592 0-1.077-.482-1.077-1.075V49.02c0-.137-.113-.25-.25-.25-.743 0-.825.53-1.348.53-.535 0-.597-.53-1.352-.53-.743 0-.825.53-1.35.53-.525 0-.598-.53-1.345-.53-.748 0-.825.53-1.35.53-.528 0-.6-.53-1.35-.53-.178 0-.345.038-.465.087V37.075c0-.593.485-1.075 1.077-1.075zm-5.53 13.271c.533 0 .595.528 1.351.528.57 0 .77-.312 1.022-.451l.077-.036v1.613c0 .359.126.699.333.965l.093.11h-9.643c-.554 0-1.01-.42-1.069-.958l-.006-.117v-1.396c0-.103.117-.162.2-.1.205.153.42.37.9.37.74 0 .828-.528 1.348-.528.524 0 .6.528 1.35.528.741 0 .824-.528 1.348-.528.523 0 .6.528 1.347.528.748 0 .824-.528 1.349-.528zm6.63-13.266c.597-.028 1.06.412 1.119.953l.006.117v9.555c0 .182-.128.333-.3.367l-.075.008h-1.778v-9.872c0-.57.418-1.098 1.028-1.128zm-10.13 9.08c-.432 0-.784.349-.784.783 0 .431.352.783.784.783.433 0 .783-.352.783-.783 0-.434-.35-.784-.783-.784zm6.8.292h-4.137c-.269 0-.488.22-.488.49s.22.489.488.489h4.136c.27 0 .489-.218.489-.489 0-.27-.218-.49-.489-.49zm-6.8-3.69c-.432 0-.784.35-.784.784 0 .432.352.784.784.784.433 0 .783-.352.783-.784 0-.433-.35-.783-.783-.783zm6.8.294h-4.137c-.269 0-.488.22-.488.49s.22.488.488.488h4.136c.27 0 .489-.217.489-.488 0-.27-.218-.49-.489-.49zm-6.8-3.69c-.432 0-.784.35-.784.784 0 .432.352.783.784.783.433 0 .783-.351.783-.783 0-.434-.35-.783-.783-.783zm6.8.293h-4.137c-.269 0-.488.22-.488.49 0 .271.22.489.488.489h4.136c.27 0 .489-.218.489-.488 0-.271-.218-.49-.489-.49z"/>
    </defs>
    <g fill="none" fill-rule="evenodd">
        <g fill-rule="nonzero">
            <g transform="translate(-288 -36)">
                <use fill="#747474" xlink:href="#ajtgj2vr4a"/>
                <use fill="#FFF" xlink:href="#ajtgj2vr4a"/>
                <use fill="#000" xlink:href="#ajtgj2vr4a"/>
            </g>
        </g>
    </g>
</svg>
