<svg width="18" height="18" viewBox="0 0 18 18" fill="none" xmlns="http://www.w3.org/2000/svg">
<path d="M3.14939 7.85049C2.71417 7.46434 2.15437 7.25135 1.57473 7.25135C0.995085 7.25135 0.435294 7.46434 7.31146e-05 7.85049V3.08774C-0.00195524 2.87197 0.0382382 2.65792 0.118351 2.45783C0.198465 2.25775 0.316924 2.07558 0.466945 1.92174C0.616966 1.76791 0.795602 1.64543 0.992621 1.56133C1.18964 1.47723 1.40117 1.43316 1.61511 1.43164C2.02588 1.44175 2.4165 1.6132 2.7038 1.90949C2.99109 2.20579 3.15235 2.6035 3.15323 3.01793V7.85049H3.14939Z" fill="white"/>
<path d="M18.0001 2.19909C18.0001 1.61585 17.7703 1.05651 17.3615 0.644097C16.9526 0.231689 16.398 0 15.8198 0H1.85742C2.46121 0.00102179 3.04004 0.243131 3.46734 0.673391C3.89464 1.10365 4.13566 1.68706 4.13769 2.29605V14.8623C4.13863 15.2369 4.2646 15.6003 4.49531 15.8939L5.89885 17.6896C5.97048 17.786 6.06337 17.8642 6.17016 17.918C6.27695 17.9719 6.39471 17.9999 6.5141 17.9999C6.63349 17.9999 6.75125 17.9719 6.85803 17.918C6.96482 17.8642 7.05771 17.786 7.12935 17.6896L8.17912 16.3477C8.25076 16.2514 8.34365 16.1732 8.45044 16.1193C8.55722 16.0655 8.67498 16.0374 8.79437 16.0374C8.91376 16.0374 9.03152 16.0655 9.13831 16.1193C9.24509 16.1732 9.33799 16.2514 9.40962 16.3477L10.4555 17.6896C10.5272 17.786 10.6201 17.8642 10.7269 17.918C10.8337 17.9719 10.9514 17.9999 11.0708 17.9999C11.1902 17.9999 11.3079 17.9719 11.4147 17.918C11.5215 17.8642 11.6144 17.786 11.686 17.6896L12.7358 16.3477C12.8075 16.2514 12.9003 16.1732 13.0071 16.1193C13.1139 16.0655 13.2317 16.0374 13.3511 16.0374C13.4705 16.0374 13.5882 16.0655 13.695 16.1193C13.8018 16.1732 13.8947 16.2514 13.9663 16.3477L15.0122 17.6896C15.0839 17.786 15.1768 17.8642 15.2836 17.918C15.3903 17.9719 15.5081 17.9999 15.6275 17.9999C15.7469 17.9999 15.8646 17.9719 15.9714 17.918C16.0782 17.8642 16.1711 17.786 16.2427 17.6896L17.7809 15.7078C17.9166 15.5342 17.991 15.3199 17.9924 15.0988L18.0001 2.19909ZM12.1821 12.0736H6.24877C6.0958 12.0736 5.94909 12.0123 5.84091 11.9032C5.73274 11.7941 5.67197 11.6462 5.67197 11.4919C5.67197 11.3376 5.73274 11.1896 5.84091 11.0805C5.94909 10.9714 6.0958 10.9101 6.24877 10.9101H12.1821C12.3351 10.9101 12.4818 10.9714 12.59 11.0805C12.6981 11.1896 12.7589 11.3376 12.7589 11.4919C12.7589 11.6462 12.6981 11.7941 12.59 11.9032C12.4818 12.0123 12.3351 12.0736 12.1821 12.0736ZM12.1821 9.84741H6.24877C6.0958 9.84741 5.94909 9.78611 5.84091 9.67701C5.73274 9.56791 5.67197 9.41993 5.67197 9.26564C5.67197 9.11134 5.73274 8.96337 5.84091 8.85426C5.94909 8.74516 6.0958 8.68387 6.24877 8.68387H12.1821C12.3351 8.68387 12.4818 8.74516 12.59 8.85426C12.6981 8.96337 12.7589 9.11134 12.7589 9.26564C12.7589 9.41993 12.6981 9.56791 12.59 9.67701C12.4818 9.78611 12.3351 9.84741 12.1821 9.84741ZM6.89478 6.01937C6.74181 6.01937 6.5951 5.95807 6.48693 5.84897C6.37876 5.73987 6.31799 5.59189 6.31799 5.4376C6.31799 5.2833 6.37876 5.13533 6.48693 5.02623C6.5951 4.91712 6.74181 4.85583 6.89478 4.85583H15.1507C15.3037 4.85583 15.4504 4.91712 15.5585 5.02623C15.6667 5.13533 15.7275 5.2833 15.7275 5.4376C15.7275 5.59189 15.6667 5.73987 15.5585 5.84897C15.4504 5.95807 15.3037 6.01937 15.1507 6.01937H6.89478ZM15.889 12.0736H14.3778C14.2248 12.0736 14.0781 12.0123 13.9699 11.9032C13.8617 11.7941 13.801 11.6462 13.801 11.4919C13.801 11.3376 13.8617 11.1896 13.9699 11.0805C14.0781 10.9714 14.2248 10.9101 14.3778 10.9101H15.889C16.042 10.9101 16.1887 10.9714 16.2968 11.0805C16.405 11.1896 16.4658 11.3376 16.4658 11.4919C16.4658 11.6462 16.405 11.7941 16.2968 11.9032C16.1887 12.0123 16.042 12.0736 15.889 12.0736ZM15.889 9.84741H14.3778C14.2248 9.84741 14.0781 9.78611 13.9699 9.67701C13.8617 9.56791 13.801 9.41993 13.801 9.26564C13.801 9.11134 13.8617 8.96337 13.9699 8.85426C14.0781 8.74516 14.2248 8.68387 14.3778 8.68387H15.889C16.042 8.68387 16.1887 8.74516 16.2968 8.85426C16.405 8.96337 16.4658 9.11134 16.4658 9.26564C16.4658 9.41993 16.405 9.56791 16.2968 9.67701C16.1887 9.78611 16.042 9.84741 15.889 9.84741Z" fill="white"/>
</svg>
