<svg width="24" height="24" viewBox="0 0 24 24" fill="none" xmlns="http://www.w3.org/2000/svg">
<g clip-path="url(#clip0)">
<g clip-path="url(#clip1)">
<path d="M17.3631 11.2499C17.2793 11.25 17.1969 11.229 17.1233 11.1889C17.0498 11.1487 16.9875 11.0907 16.9422 11.0203C16.8969 10.9498 16.87 10.869 16.8641 10.7854C16.8581 10.7019 16.8733 10.6181 16.9081 10.5419L21.2901 0.988939C21.3409 0.845911 21.4197 0.714449 21.522 0.602236C21.6242 0.490023 21.7477 0.399312 21.8854 0.335404C22.0231 0.271497 22.1721 0.235677 22.3238 0.230037C22.4755 0.224397 22.6267 0.249051 22.7688 0.302557C22.9108 0.356064 23.0408 0.437349 23.151 0.541662C23.2613 0.645975 23.3497 0.771221 23.411 0.91008C23.4723 1.04894 23.5053 1.19862 23.508 1.35038C23.5108 1.50214 23.4833 1.65293 23.4271 1.79394L20.8841 10.8849C20.8546 10.9901 20.7916 11.0826 20.7045 11.1485C20.6175 11.2145 20.5113 11.2501 20.4021 11.2499H17.3631Z" fill="black"/>
<path d="M6.5 9.74988C5.90351 9.75067 5.33167 9.98798 4.90989 10.4098C4.4881 10.8315 4.25079 11.4034 4.25 11.9999C4.25 12.1988 4.32902 12.3896 4.46967 12.5302C4.61032 12.6709 4.80109 12.7499 5 12.7499H8C8.19891 12.7499 8.38968 12.6709 8.53033 12.5302C8.67098 12.3896 8.75 12.1988 8.75 11.9999C8.74921 11.4034 8.5119 10.8315 8.09011 10.4098C7.66833 9.98798 7.09649 9.75067 6.5 9.74988Z" fill="black"/>
<path d="M14.5 11.1249C13.9696 11.1249 13.4609 11.3356 13.0858 11.7107C12.7107 12.0857 12.5 12.5944 12.5 13.1249C12.5 13.3238 12.579 13.5146 12.7197 13.6552C12.8603 13.7959 13.0511 13.8749 13.25 13.8749H15.75C15.9489 13.8749 16.1397 13.7959 16.2803 13.6552C16.421 13.5146 16.5 13.3238 16.5 13.1249C16.5 12.5944 16.2893 12.0857 15.9142 11.7107C15.5391 11.3356 15.0304 11.1249 14.5 11.1249Z" fill="black"/>
<path d="M13.0171 10.1249C13.0827 10.0107 13.1172 9.88118 13.1172 9.74942C13.1172 9.61765 13.0827 9.48818 13.0171 9.37391C12.8632 9.10818 12.6421 8.88757 12.376 8.73421C12.1099 8.58085 11.8082 8.50012 11.5011 8.50012C11.194 8.50012 10.8923 8.58085 10.6262 8.73421C10.3601 8.88757 10.139 9.10818 9.98509 9.37391C9.91932 9.48804 9.88472 9.61746 9.88477 9.74918C9.88481 9.8809 9.9195 10.0103 9.98536 10.1244C10.0512 10.2385 10.1459 10.3332 10.26 10.3991C10.374 10.465 10.5034 10.4998 10.6351 10.4999H12.3681C12.4996 10.4994 12.6286 10.4646 12.7425 10.3988C12.8563 10.333 12.951 10.2386 13.0171 10.1249Z" fill="black"/>
<path d="M23.666 9.98782C23.5752 9.80941 23.4176 9.6741 23.2275 9.61136C23.0374 9.54862 22.8302 9.56352 22.651 9.65282C22.5625 9.69652 22.4835 9.75731 22.4186 9.83168C22.3537 9.90605 22.3041 9.99254 22.2728 10.0861C22.2415 10.1798 22.229 10.2786 22.2361 10.3771C22.2431 10.4756 22.2696 10.5716 22.314 10.6598C22.4261 10.8738 22.486 11.1113 22.489 11.3528C22.489 13.2938 18.181 15.4528 12 15.4528C5.819 15.4528 1.511 13.2908 1.511 11.3528C1.511 9.41482 5.819 7.24982 12 7.24982C13.4285 7.24381 14.8545 7.36934 16.26 7.62482C16.3568 7.64314 16.4562 7.64222 16.5527 7.6221C16.6491 7.60199 16.7406 7.56308 16.822 7.5076C16.9034 7.45212 16.9731 7.38115 17.027 7.29874C17.081 7.21633 17.1182 7.1241 17.1365 7.02732C17.1548 6.93054 17.1539 6.83109 17.1338 6.73466C17.1137 6.63824 17.0748 6.54671 17.0193 6.46532C16.9638 6.38393 16.8928 6.31427 16.8104 6.26031C16.728 6.20634 16.6358 6.16914 16.539 6.15082C15.0415 5.87815 13.5221 5.74391 12 5.74982C5.271 5.74982 0 8.21082 0 11.3498V13.7758C0 19.5538 5.047 23.7468 12 23.7468C18.953 23.7468 24 19.5538 24 13.7758V11.3528C23.9977 10.8779 23.8833 10.4102 23.666 9.98782Z" fill="black"/>
</g>
</g>
<defs>
<clipPath id="clip0">
<rect width="24" height="24" fill="white"/>
</clipPath>
<clipPath id="clip1">
<rect width="24" height="24" fill="white" transform="translate(0 -0.00012207)"/>
</clipPath>
</defs>
</svg>
