<svg width="24" height="24" viewBox="0 0 24 24" fill="none" xmlns="http://www.w3.org/2000/svg">
<g clip-path="url(#clip0)">
<g clip-path="url(#clip1)">
<path d="M17.914 9.58588L16.149 7.66188C16.1021 7.61075 16.0451 7.56995 15.9815 7.54206C15.918 7.51417 15.8494 7.4998 15.78 7.49988H8.22C8.15062 7.4998 8.08198 7.51417 8.01846 7.54206C7.95493 7.56995 7.8979 7.61075 7.851 7.66188L6.086 9.58588C5.7109 9.96086 5.50011 10.4695 5.5 10.9999V20.3789C5.50017 21.3648 5.7849 22.3298 6.32 23.1579C6.50116 23.423 6.7455 23.6388 7.03095 23.7858C7.3164 23.9328 7.63398 24.0064 7.955 23.9999H16.044C16.3654 24.0063 16.6833 23.9326 16.9691 23.7854C17.2549 23.6383 17.4996 23.4223 17.681 23.1569C18.2158 22.329 18.5002 21.3644 18.5 20.3789V10.9999C18.4999 10.4695 18.2891 9.96086 17.914 9.58588Z" fill="black"/>
<path d="M6 4.99989C6 5.26511 6.10536 5.51946 6.29289 5.707C6.48043 5.89453 6.73478 5.99989 7 5.99989H17C17.2652 5.99989 17.5196 5.89453 17.7071 5.707C17.8946 5.51946 18 5.26511 18 4.99989C18 4.73467 17.8946 4.48032 17.7071 4.29278C17.5196 4.10525 17.2652 3.99989 17 3.99989H10.85C10.7636 3.99991 10.6787 3.97753 10.6035 3.93495C10.5283 3.89236 10.4654 3.83101 10.421 3.75689L9.358 1.98489C9.22028 1.75886 8.99904 1.59621 8.74222 1.53219C8.4854 1.46817 8.2137 1.50795 7.986 1.64289C7.87331 1.71037 7.77501 1.7994 7.69673 1.90487C7.61846 2.01035 7.56172 2.13022 7.52978 2.25763C7.49783 2.38504 7.4913 2.51749 7.51056 2.64742C7.52981 2.77736 7.57448 2.90222 7.642 3.01489L8.006 3.62089C8.02884 3.65881 8.0412 3.70211 8.04183 3.74637C8.04245 3.79063 8.03131 3.83427 8.00955 3.87281C7.98778 3.91136 7.95617 3.94343 7.91795 3.96576C7.87973 3.98809 7.83627 3.99987 7.792 3.99989H7C6.73478 3.99989 6.48043 4.10525 6.29289 4.29278C6.10536 4.48032 6 4.73467 6 4.99989Z" fill="black"/>
<path d="M12.25 1.49988C12.6642 1.49988 13 1.16409 13 0.749878C13 0.335664 12.6642 -0.00012207 12.25 -0.00012207C11.8358 -0.00012207 11.5 0.335664 11.5 0.749878C11.5 1.16409 11.8358 1.49988 12.25 1.49988Z" fill="black"/>
<path d="M14.75 2.74988C15.1642 2.74988 15.5 2.41409 15.5 1.99988C15.5 1.58566 15.1642 1.24988 14.75 1.24988C14.3358 1.24988 14 1.58566 14 1.99988C14 2.41409 14.3358 2.74988 14.75 2.74988Z" fill="black"/>
<path d="M12.25 3.74988C12.6642 3.74988 13 3.41409 13 2.99988C13 2.58566 12.6642 2.24988 12.25 2.24988C11.8358 2.24988 11.5 2.58566 11.5 2.99988C11.5 3.41409 11.8358 3.74988 12.25 3.74988Z" fill="black"/>
</g>
</g>
<defs>
<clipPath id="clip0">
<rect width="24" height="24" fill="white"/>
</clipPath>
<clipPath id="clip1">
<rect width="24" height="24" fill="white" transform="translate(0 -0.00012207)"/>
</clipPath>
</defs>
</svg>
