<svg width="21" height="21" viewBox="0 0 21 21" fill="none" xmlns="http://www.w3.org/2000/svg">
<path d="M18.9 0H7.70001C7.14305 0 6.60891 0.221249 6.21509 0.615076C5.82126 1.0089 5.60001 1.54304 5.60001 2.1V9.1C5.60001 9.65695 5.82126 10.1911 6.21509 10.5849C6.60891 10.9787 7.14305 11.2 7.70001 11.2H18.9C19.457 11.2 19.9911 10.9787 20.3849 10.5849C20.7788 10.1911 21 9.65695 21 9.1V2.1C21 1.54304 20.7788 1.0089 20.3849 0.615076C19.9911 0.221249 19.457 0 18.9 0ZM14.7 4.9C14.8857 4.9 15.0637 4.97375 15.195 5.10502C15.3263 5.2363 15.4 5.41435 15.4 5.6V7.84C15.4 8.02565 15.3263 8.2037 15.195 8.33497C15.0637 8.46625 14.8857 8.54 14.7 8.54H14.063C14.0206 8.6854 13.9322 8.81312 13.811 8.904C13.6898 8.99487 13.5425 9.044 13.391 9.044C13.2395 9.044 13.0922 8.99487 12.971 8.904C12.8498 8.81312 12.7614 8.6854 12.719 8.54H11.9C11.7144 8.54 11.5363 8.46625 11.405 8.33497C11.2738 8.2037 11.2 8.02565 11.2 7.84C11.2 7.65435 11.2738 7.4763 11.405 7.34502C11.5363 7.21375 11.7144 7.14 11.9 7.14H14V6.3H11.9C11.7144 6.3 11.5363 6.22625 11.405 6.09497C11.2738 5.9637 11.2 5.78565 11.2 5.6V3.36C11.2 3.17435 11.2738 2.9963 11.405 2.86502C11.5363 2.73375 11.7144 2.66 11.9 2.66H12.719C12.7614 2.5146 12.8498 2.38687 12.971 2.296C13.0922 2.20512 13.2395 2.156 13.391 2.156C13.5425 2.156 13.6898 2.20512 13.811 2.296C13.9322 2.38687 14.0206 2.5146 14.063 2.66H14.7C14.8857 2.66 15.0637 2.73375 15.195 2.86502C15.3263 2.9963 15.4 3.17435 15.4 3.36C15.4 3.54565 15.3263 3.7237 15.195 3.85497C15.0637 3.98625 14.8857 4.06 14.7 4.06H12.6V4.9H14.7ZM18.9 15.015L16.1 15.589C16.1069 15.4537 16.1069 15.3182 16.1 15.183C16.0928 14.906 16.0308 14.6331 15.9176 14.3802C15.8044 14.1272 15.6423 13.8992 15.4406 13.7092C15.2389 13.5192 15.0016 13.371 14.7423 13.2731C14.483 13.1752 14.207 13.1297 13.93 13.139C13.0204 13.1668 12.1175 12.9747 11.298 12.579L9.97501 11.998C9.61978 11.8445 9.2244 11.8101 8.84801 11.9C8.79941 11.9065 8.75215 11.9207 8.70801 11.942L7.84001 12.334C8.09634 13.0296 8.16396 13.7807 8.03601 14.511L7.21001 18.949C7.21001 19.054 7.15401 19.152 7.12601 19.257L10.871 20.699C11.3744 20.8989 11.9113 21.0011 12.453 21C13.0072 20.9997 13.5562 20.8928 14.07 20.685L19.873 18.333C20.2958 18.1608 20.6374 17.8344 20.8285 17.4197C21.0196 17.0051 21.0458 16.5333 20.902 16.1C20.7551 15.7083 20.4716 15.3828 20.1037 15.1834C19.7359 14.984 19.3084 14.9242 18.9 15.015ZM4.90001 11.403L0.826014 10.787C0.724723 10.7685 0.62059 10.7725 0.521039 10.7988C0.421488 10.8251 0.328972 10.8731 0.250085 10.9393C0.171199 11.0055 0.107886 11.0883 0.0646603 11.1817C0.0214349 11.2752 -0.000638488 11.377 1.40574e-05 11.48V19.88C1.40574e-05 20.0656 0.0737638 20.2437 0.205039 20.375C0.336315 20.5062 0.514362 20.58 0.700014 20.58H3.78001C4.2893 20.5592 4.77476 20.3587 5.15023 20.014C5.5257 19.6692 5.76689 19.2027 5.83101 18.697L6.65701 14.252C6.72123 13.9089 6.71655 13.5564 6.64324 13.2151C6.56993 12.8738 6.42946 12.5505 6.23001 12.264C6.07796 12.0381 5.88172 11.8453 5.65314 11.6974C5.42455 11.5494 5.16836 11.4493 4.90001 11.403Z" fill="#ED1C24"/>
</svg>
