<svg width="24" height="24" viewBox="0 0 24 24" fill="none" xmlns="http://www.w3.org/2000/svg">
<g clip-path="url(#clip0)">
<g clip-path="url(#clip1)">
<path d="M9.541 13.2398C9.45402 13.1998 9.38036 13.1357 9.32878 13.055C9.27719 12.9743 9.24985 12.8806 9.25 12.7848V1.49983C9.24995 1.22319 9.17339 0.95195 9.02879 0.716104C8.8842 0.480258 8.6772 0.288993 8.43068 0.163456C8.18416 0.03792 7.90773 -0.0169976 7.63194 0.00477588C7.35616 0.0265493 7.09177 0.124165 6.868 0.286831L2.984 3.11083C2.60232 3.38996 2.29172 3.75503 2.07734 4.17649C1.86296 4.59796 1.75082 5.06398 1.75 5.53683V12.7848C1.75015 12.8806 1.72281 12.9743 1.67122 13.055C1.61964 13.1357 1.54598 13.1998 1.459 13.2398C1.02478 13.4371 0.656399 13.755 0.397731 14.1556C0.139062 14.5563 0.00100454 15.0229 0 15.4998L0 22.9998C0 23.265 0.105357 23.5194 0.292893 23.7069C0.48043 23.8945 0.734784 23.9998 1 23.9998H10C10.2652 23.9998 10.5196 23.8945 10.7071 23.7069C10.8946 23.5194 11 23.265 11 22.9998V15.4998C10.999 15.0229 10.8609 14.5563 10.6023 14.1556C10.3436 13.755 9.97522 13.4371 9.541 13.2398ZM7.25 12.4998C7.25 12.6324 7.19732 12.7596 7.10355 12.8534C7.00979 12.9472 6.88261 12.9998 6.75 12.9998H4.25C4.11739 12.9998 3.99021 12.9472 3.89645 12.8534C3.80268 12.7596 3.75 12.6324 3.75 12.4998V5.53683C3.75034 5.37921 3.78771 5.22388 3.8591 5.08336C3.9305 4.94284 4.03391 4.82105 4.161 4.72783L6.461 3.05883C6.53529 3.00482 6.62302 2.97232 6.71457 2.96489C6.80612 2.95746 6.89795 2.97539 6.97998 3.01671C7.062 3.05803 7.13106 3.12116 7.17958 3.19915C7.22809 3.27714 7.25419 3.36699 7.255 3.45883L7.25 12.4998Z" fill="black"/>
<path d="M21.5 11.9999H15.5C14.837 11.9999 14.2011 12.2633 13.7322 12.7321C13.2634 13.201 13 13.8368 13 14.4999V19.2499C13 19.3825 13.0527 19.5097 13.1464 19.6034C13.2402 19.6972 13.3674 19.7499 13.5 19.7499H23.5C23.6326 19.7499 23.7598 19.6972 23.8536 19.6034C23.9473 19.5097 24 19.3825 24 19.2499V14.4999C24 14.1716 23.9353 13.8465 23.8097 13.5432C23.6841 13.2399 23.4999 12.9643 23.2678 12.7321C23.0356 12.5 22.76 12.3158 22.4567 12.1902C22.1534 12.0645 21.8283 11.9999 21.5 11.9999Z" fill="black"/>
<path d="M23.5 21.2499H13.5C13.3674 21.2499 13.2402 21.3026 13.1464 21.3963C13.0527 21.4901 13 21.6173 13 21.7499V22.9999C13 23.2651 13.1054 23.5194 13.2929 23.707C13.4804 23.8945 13.7348 23.9999 14 23.9999H23C23.2652 23.9999 23.5196 23.8945 23.7071 23.707C23.8946 23.5194 24 23.2651 24 22.9999V21.7499C24 21.6173 23.9473 21.4901 23.8536 21.3963C23.7598 21.3026 23.6326 21.2499 23.5 21.2499Z" fill="black"/>
</g>
</g>
<defs>
<clipPath id="clip0">
<rect width="24" height="24" fill="white"/>
</clipPath>
<clipPath id="clip1">
<rect width="24" height="24" fill="white" transform="translate(0 -0.00012207)"/>
</clipPath>
</defs>
</svg>
