<svg width="24" height="24" viewBox="0 0 24 24" fill="none" xmlns="http://www.w3.org/2000/svg">
<g clip-path="url(#clip0)">
<g clip-path="url(#clip1)">
<path d="M18.521 10.7749C18.5073 10.7433 18.5002 10.7093 18.5 10.6749V0.999878C18.5 0.734661 18.3946 0.480308 18.2071 0.292771C18.0196 0.105235 17.7652 -0.00012207 17.5 -0.00012207C17.2348 -0.00012207 16.9804 0.105235 16.7929 0.292771C16.6054 0.480308 16.5 0.734661 16.5 0.999878V1.49988C16.5 1.63249 16.4473 1.75966 16.3536 1.85343C16.2598 1.9472 16.1326 1.99988 16 1.99988H8C7.86739 1.99988 7.74021 1.9472 7.64645 1.85343C7.55268 1.75966 7.5 1.63249 7.5 1.49988V0.999878C7.5 0.734661 7.39464 0.480308 7.20711 0.292771C7.01957 0.105235 6.76522 -0.00012207 6.5 -0.00012207C6.23478 -0.00012207 5.98043 0.105235 5.79289 0.292771C5.60536 0.480308 5.5 0.734661 5.5 0.999878V10.6729C5.49982 10.7073 5.49268 10.7413 5.479 10.7729C5.24 11.3109 3.5 15.2279 3.5 15.4999V16.4999C3.5 16.6325 3.55268 16.7597 3.64645 16.8534C3.74021 16.9472 3.86739 16.9999 4 16.9999H20C20.1326 16.9999 20.2598 16.9472 20.3536 16.8534C20.4473 16.7597 20.5 16.6325 20.5 16.4999V15.4999C20.5 15.2279 18.76 11.3109 18.521 10.7749ZM16.5 9.99988C16.5 10.1325 16.4473 10.2597 16.3536 10.3534C16.2598 10.4472 16.1326 10.4999 16 10.4999H8C7.86739 10.4999 7.74021 10.4472 7.64645 10.3534C7.55268 10.2597 7.5 10.1325 7.5 9.99988V6.99988C7.5 6.86727 7.55268 6.74009 7.64645 6.64632C7.74021 6.55256 7.86739 6.49988 8 6.49988H16C16.1326 6.49988 16.2598 6.55256 16.3536 6.64632C16.4473 6.74009 16.5 6.86727 16.5 6.99988V9.99988Z" fill="black"/>
<path d="M5.5 18.9999C5.5 18.8673 5.44732 18.7401 5.35355 18.6463C5.25979 18.5526 5.13261 18.4999 5 18.4999H4C3.86739 18.4999 3.74021 18.5526 3.64645 18.6463C3.55268 18.7401 3.5 18.8673 3.5 18.9999V22.9999C3.5 23.2651 3.60536 23.5194 3.79289 23.707C3.98043 23.8945 4.23478 23.9999 4.5 23.9999C4.76522 23.9999 5.01957 23.8945 5.20711 23.707C5.39464 23.5194 5.5 23.2651 5.5 22.9999V18.9999Z" fill="black"/>
<path d="M20 18.4999H19C18.8674 18.4999 18.7402 18.5526 18.6464 18.6463C18.5527 18.7401 18.5 18.8673 18.5 18.9999V22.9999C18.5 23.2651 18.6054 23.5194 18.7929 23.707C18.9804 23.8945 19.2348 23.9999 19.5 23.9999C19.7652 23.9999 20.0196 23.8945 20.2071 23.707C20.3946 23.5194 20.5 23.2651 20.5 22.9999V18.9999C20.5 18.8673 20.4473 18.7401 20.3536 18.6463C20.2598 18.5526 20.1326 18.4999 20 18.4999Z" fill="black"/>
</g>
</g>
<defs>
<clipPath id="clip0">
<rect width="24" height="24" fill="white"/>
</clipPath>
<clipPath id="clip1">
<rect width="24" height="24" fill="white" transform="translate(0 -0.00012207)"/>
</clipPath>
</defs>
</svg>
