<svg width="20" height="20" viewBox="0 0 20 20" fill="none" xmlns="http://www.w3.org/2000/svg">
<path d="M15.8333 1.04102H5.83334C4.10745 1.04102 2.70834 2.44013 2.70834 4.16602V15.8327C2.70834 17.5586 4.10745 18.9577 5.83334 18.9577H15.8333C17.5592 18.9577 18.9583 17.5586 18.9583 15.8327V4.16602C18.9583 2.44013 17.5592 1.04102 15.8333 1.04102Z" fill="#AAAAAA"/>
<path d="M6.66667 1.04102V18.9577H5.83334C5.00462 18.9574 4.20994 18.6281 3.62395 18.0421C3.03796 17.4561 2.70863 16.6614 2.70834 15.8327V4.16602C2.70863 3.3373 3.03796 2.54262 3.62395 1.95663C4.20994 1.37064 5.00462 1.04131 5.83334 1.04102H6.66667Z" fill="#979797"/>
<path d="M12.9167 10.625C12.2986 10.625 11.6944 10.4417 11.1805 10.0983C10.6666 9.75496 10.2661 9.26691 10.0295 8.69589C9.79303 8.12487 9.73114 7.49653 9.85172 6.89034C9.9723 6.28415 10.2699 5.72733 10.707 5.29029C11.144 4.85325 11.7008 4.55563 12.307 4.43505C12.9132 4.31447 13.5415 4.37635 14.1126 4.61288C14.6836 4.8494 15.1716 5.24994 15.515 5.76384C15.8584 6.27775 16.0417 6.88193 16.0417 7.5C16.0407 8.3285 15.7111 9.12279 15.1253 9.70863C14.5395 10.2945 13.7452 10.624 12.9167 10.625ZM12.9167 5.625C12.5458 5.625 12.1833 5.73497 11.875 5.941C11.5666 6.14702 11.3263 6.43986 11.1844 6.78247C11.0425 7.12508 11.0054 7.50208 11.0777 7.8658C11.15 8.22951 11.3286 8.5636 11.5908 8.82583C11.8531 9.08805 12.1872 9.26663 12.5509 9.33897C12.9146 9.41132 13.2916 9.37419 13.6342 9.23228C13.9768 9.09036 14.2697 8.85004 14.4757 8.5417C14.6817 8.23335 14.7917 7.87084 14.7917 7.5C14.7911 7.00291 14.5933 6.52635 14.2418 6.17485C13.8903 5.82336 13.4138 5.62561 12.9167 5.625Z" fill="white"/>
<path d="M1.66667 5.83268C1.44566 5.83268 1.23369 5.74488 1.07741 5.5886C0.921133 5.43232 0.833336 5.22036 0.833336 4.99935C0.833336 4.77834 0.921133 4.56637 1.07741 4.41009C1.23369 4.25381 1.44566 4.16602 1.66667 4.16602H4.16667C4.38768 4.16602 4.59964 4.25381 4.75592 4.41009C4.9122 4.56637 5 4.77834 5 4.99935C5 5.22036 4.9122 5.43232 4.75592 5.5886C4.59964 5.74488 4.38768 5.83268 4.16667 5.83268H1.66667ZM1.66667 9.16602C1.44566 9.16602 1.23369 9.07822 1.07741 8.92194C0.921133 8.76566 0.833336 8.5537 0.833336 8.33268C0.833336 8.11167 0.921133 7.89971 1.07741 7.74343C1.23369 7.58715 1.44566 7.49935 1.66667 7.49935H4.16667C4.38768 7.49935 4.59964 7.58715 4.75592 7.74343C4.9122 7.89971 5 8.11167 5 8.33268C5 8.5537 4.9122 8.76566 4.75592 8.92194C4.59964 9.07822 4.38768 9.16602 4.16667 9.16602H1.66667ZM1.66667 12.4993C1.44566 12.4993 1.23369 12.4116 1.07741 12.2553C0.921133 12.099 0.833336 11.887 0.833336 11.666C0.833336 11.445 0.921133 11.233 1.07741 11.0768C1.23369 10.9205 1.44566 10.8327 1.66667 10.8327H4.16667C4.38768 10.8327 4.59964 10.9205 4.75592 11.0768C4.9122 11.233 5 11.445 5 11.666C5 11.887 4.9122 12.099 4.75592 12.2553C4.59964 12.4116 4.38768 12.4993 4.16667 12.4993H1.66667ZM1.66667 15.8327C1.44566 15.8327 1.23369 15.7449 1.07741 15.5886C0.921133 15.4323 0.833336 15.2204 0.833336 14.9993C0.833336 14.7783 0.921133 14.5664 1.07741 14.4101C1.23369 14.2538 1.44566 14.166 1.66667 14.166H4.16667C4.38768 14.166 4.59964 14.2538 4.75592 14.4101C4.9122 14.5664 5 14.7783 5 14.9993C5 15.2204 4.9122 15.4323 4.75592 15.5886C4.59964 15.7449 4.38768 15.8327 4.16667 15.8327H1.66667Z" fill="#AAAAAA"/>
<path d="M15.8333 13.9583C15.6676 13.9583 15.5086 13.8924 15.3914 13.7752C15.2742 13.658 15.2084 13.4991 15.2083 13.3333V12.9167C15.2083 12.3089 14.9669 11.726 14.5371 11.2962C14.1073 10.8664 13.5245 10.625 12.9167 10.625C12.3089 10.625 11.726 10.8664 11.2962 11.2962C10.8664 11.726 10.625 12.3089 10.625 12.9167V13.3333C10.625 13.4991 10.5592 13.6581 10.4419 13.7753C10.3247 13.8925 10.1658 13.9583 10 13.9583C9.83424 13.9583 9.67527 13.8925 9.55806 13.7753C9.44085 13.6581 9.375 13.4991 9.375 13.3333V12.9167C9.375 11.9774 9.74814 11.0765 10.4123 10.4123C11.0765 9.74814 11.9774 9.375 12.9167 9.375C13.856 9.375 14.7568 9.74814 15.421 10.4123C16.0852 11.0765 16.4583 11.9774 16.4583 12.9167V13.3333C16.4583 13.4991 16.3924 13.658 16.2752 13.7752C16.158 13.8924 15.9991 13.9583 15.8333 13.9583Z" fill="white"/>
</svg>
