<svg xmlns="http://www.w3.org/2000/svg" xmlns:xlink="http://www.w3.org/1999/xlink" width="11" height="15" viewBox="0 0 11 15">
    <defs>
        <path id="7a61bx0m6a" d="M24.215 84.649c-.367.468-1.063.468-1.43 0C19.6 80.586 18 77.639 18 75.625 18 72.518 20.462 70 23.5 70s5.5 2.518 5.5 5.625c0 2.014-1.601 4.961-4.785 9.024zm2.952-9.024c0-2.071-1.642-3.75-3.667-3.75s-3.667 1.679-3.667 3.75c0 1.316 1.218 3.669 3.667 6.92 2.45-3.251 3.667-5.604 3.667-6.92zM23.5 77.5c-1.013 0-1.833-.84-1.833-1.875 0-1.036.82-1.875 1.833-1.875s1.833.84 1.833 1.875c0 1.036-.82 1.875-1.833 1.875z"/>
    </defs>
    <g fill="none" fill-rule="evenodd">
        <g fill-rule="nonzero">
            <g transform="translate(-18 -70)">
                <use fill="#000" xlink:href="#7a61bx0m6a"/>
                <use fill="#747474" xlink:href="#7a61bx0m6a"/>
            </g>
        </g>
    </g>
</svg>
