<svg width="24" height="24" viewBox="0 0 24 24" fill="none" xmlns="http://www.w3.org/2000/svg">
<path d="M2 11.9999C2 12.3314 2.1317 12.6493 2.36612 12.8838C2.60054 13.1182 2.91848 13.2499 3.25 13.2499H10.5417C10.5969 13.2499 10.6499 13.2718 10.689 13.3109C10.7281 13.35 10.75 13.403 10.75 13.4582V20.7499C10.75 21.0814 10.8817 21.3993 11.1161 21.6338C11.3505 21.8682 11.6685 21.9999 12 21.9999C12.3315 21.9999 12.6495 21.8682 12.8839 21.6338C13.1183 21.3993 13.25 21.0814 13.25 20.7499V13.4582C13.25 13.403 13.2719 13.35 13.311 13.3109C13.3501 13.2718 13.4031 13.2499 13.4583 13.2499H20.75C21.0815 13.2499 21.3995 13.1182 21.6339 12.8838C21.8683 12.6493 22 12.3314 22 11.9999C22 11.6684 21.8683 11.3504 21.6339 11.116C21.3995 10.8816 21.0815 10.7499 20.75 10.7499H13.4583C13.4031 10.7499 13.3501 10.7279 13.311 10.6889C13.2719 10.6498 13.25 10.5968 13.25 10.5415V3.24988C13.25 2.91836 13.1183 2.60041 12.8839 2.36599C12.6495 2.13157 12.3315 1.99988 12 1.99988C11.6685 1.99988 11.3505 2.13157 11.1161 2.36599C10.8817 2.60041 10.75 2.91836 10.75 3.24988V10.5415C10.75 10.5968 10.7281 10.6498 10.689 10.6889C10.6499 10.7279 10.5969 10.7499 10.5417 10.7499H3.25C2.91848 10.7499 2.60054 10.8816 2.36612 11.116C2.1317 11.3504 2 11.6684 2 11.9999V11.9999Z" fill="black"/>
</svg>
