<svg width="18" height="18" viewBox="0 0 18 18" fill="none" xmlns="http://www.w3.org/2000/svg">
<path d="M2.925 6.3C3.9375 3.9375 6.3 2.25 9 2.25C12.375 2.25 15.075 4.725 15.6375 7.875H17.8875C17.325 3.4875 13.6125 0 9 0C5.625 0 2.7 1.8 1.2375 4.6125L0 3.375V7.875H4.5L2.925 6.3ZM18 10.125H13.3875L15.075 11.7C14.0625 14.0625 11.7 15.75 8.8875 15.75C5.625 15.75 2.8125 13.275 2.25 10.125H0C0.5625 14.5125 4.3875 18 8.8875 18C12.2625 18 15.1875 16.0875 16.7625 13.3875L18 14.625V10.125Z" fill="#00AB66"/>
</svg>
