<svg width="24" height="24" viewBox="0 0 24 24" fill="none" xmlns="http://www.w3.org/2000/svg">
<g clip-path="url(#clip0)">
<path fill-rule="evenodd" clip-rule="evenodd" d="M5.06669 6.54529H4V21.9998C4 23.1044 4.89543 23.9998 6 23.9998H18C19.1046 23.9998 20 23.1044 20 21.9998V6.54529H18.9334V7.72711C18.9334 8.27939 18.4856 8.72711 17.9334 8.72711H6.06669C5.51441 8.72711 5.06669 8.27939 5.06669 7.72711V6.54529Z" fill="black"/>
<path d="M15.7334 -0.00012207H17.8667V7.63624H15.7334V-0.00012207Z" fill="black"/>
<path d="M12.5332 2.18164H14.6665V7.63619H12.5332V2.18164Z" fill="black"/>
<path d="M9.3335 2.18164H11.4668V7.63619H9.3335V2.18164Z" fill="black"/>
<path d="M6.1333 2.18164H8.26663V7.63619H6.1333V2.18164Z" fill="black"/>
</g>
<defs>
<clipPath id="clip0">
<rect width="24" height="24" fill="white"/>
</clipPath>
</defs>
</svg>
