<svg xmlns="http://www.w3.org/2000/svg" width="12" height="16" viewBox="0 0 12 16">
    <g fill="none" fill-rule="evenodd">
        <g fill="#000" fill-rule="nonzero">
            <g>
                <path d="M6.788 3.346c.52 0 1.004.26 1.264.707l.707 1.19c.669 1.078 1.859 1.822 3.235 1.822v1.487c-1.636 0-3.087-.744-4.053-1.934L7.495 8.85l1.524 1.525v5.614H7.532v-4.461l-1.6-1.488-.706 3.272c0-.037-5.205-1.04-5.205-1.04l.297-1.451 3.644.707L5.115 5.54l-1.301.52v2.492H2.326V5.057L6.23 3.458c.186-.074.372-.112.558-.112zM7.904 0C8.722 0 9.39.67 9.39 1.487c0 .818-.67 1.488-1.487 1.488-.818 0-1.488-.67-1.488-1.488S7.086 0 7.904 0z" transform="translate(-46 -36) translate(46 36)"/>
            </g>
        </g>
    </g>
</svg>
