<svg xmlns="http://www.w3.org/2000/svg" width="16" height="16" viewBox="0 0 16 16">
    <g fill="none" fill-rule="evenodd">
        <g fill="#000">
            <path d="M837.437 85.938h-.726l-.253.25c.892 1.04 1.435 2.389 1.435 3.866 0 3.284-2.663 5.946-5.947 5.946-3.284 0-5.946-2.662-5.946-5.946s2.662-5.946 5.946-5.946c1.478 0 2.825.542 3.865 1.433l.253-.251v-.724L840.636 80 842 81.364l-4.563 4.574zm-5.49 0c-2.275 0-4.117 1.842-4.117 4.116 0 2.273 1.842 4.116 4.116 4.116 2.274 0 4.117-1.843 4.117-4.116 0-2.274-1.843-4.116-4.117-4.116z" transform="translate(-826 -80) matrix(1 0 0 -1 0 176)"/>
        </g>
    </g>
</svg>
