<svg width="14" height="14" viewBox="0 0 16 16" xmlns="http://www.w3.org/2000/svg">
    <path d="M3.61111 0H2.16667C1.88224 4.61919e-05 1.60063 0.0562799 1.338 0.165471C1.07537 0.274663 0.836897 0.434661 0.636278 0.636278C0.434661 0.836897 0.274663 1.07537 0.165471 1.338C0.0562799 1.60063 4.61919e-05 1.88224 0 2.16667V3.61111C0 4.20694 0.243389 4.74861 0.636278 5.1415C0.836897 5.34312 1.07537 5.50311 1.338 5.61231C1.60063 5.7215 1.88224 5.77773 2.16667 5.77778H3.61111C3.89554 5.77773 4.17715 5.7215 4.43978 5.61231C4.70241 5.50311 4.94088 5.34312 5.1415 5.1415C5.34312 4.94088 5.50311 4.70241 5.61231 4.43978C5.7215 4.17715 5.77773 3.89554 5.77778 3.61111V2.16667C5.77773 1.88224 5.7215 1.60063 5.61231 1.338C5.50311 1.07537 5.34312 0.836897 5.1415 0.636278C4.94088 0.434661 4.70241 0.274663 4.43978 0.165471C4.17715 0.0562799 3.89554 4.61919e-05 3.61111 0ZM10.8333 0H9.38889C9.10446 4.61919e-05 8.82285 0.0562799 8.56022 0.165471C8.29759 0.274663 8.05912 0.434661 7.8585 0.636278C7.65688 0.836897 7.49689 1.07537 7.38769 1.338C7.2785 1.60063 7.22227 1.88224 7.22222 2.16667V3.61111C7.22222 4.20694 7.46561 4.74861 7.8585 5.1415C8.05912 5.34312 8.29759 5.50311 8.56022 5.61231C8.82285 5.7215 9.10446 5.77773 9.38889 5.77778H10.8333C11.1178 5.77773 11.3994 5.7215 11.662 5.61231C11.9246 5.50311 12.1631 5.34312 12.3637 5.1415C12.5653 4.94088 12.7253 4.70241 12.8345 4.43978C12.9437 4.17715 13 3.89554 13 3.61111V2.16667C13 1.88224 12.9437 1.60063 12.8345 1.338C12.7253 1.07537 12.5653 0.836897 12.3637 0.636278C12.1631 0.434661 11.9246 0.274663 11.662 0.165471C11.3994 0.0562799 11.1178 4.61919e-05 10.8333 0ZM3.61111 7.22222H2.16667C1.88224 7.22227 1.60063 7.2785 1.338 7.38769C1.07537 7.49689 0.836897 7.65688 0.636278 7.8585C0.434661 8.05912 0.274663 8.29759 0.165471 8.56022C0.0562799 8.82285 4.61919e-05 9.10446 0 9.38889V10.8333C0 11.4292 0.243389 11.9708 0.636278 12.3637C0.836897 12.5653 1.07537 12.7253 1.338 12.8345C1.60063 12.9437 1.88224 13 2.16667 13H3.61111C3.89554 13 4.17715 12.9437 4.43978 12.8345C4.70241 12.7253 4.94088 12.5653 5.1415 12.3637C5.34312 12.1631 5.50311 11.9246 5.61231 11.662C5.7215 11.3994 5.77773 11.1178 5.77778 10.8333V9.38889C5.77773 9.10446 5.7215 8.82285 5.61231 8.56022C5.50311 8.29759 5.34312 8.05912 5.1415 7.8585C4.94088 7.65688 4.70241 7.49689 4.43978 7.38769C4.17715 7.2785 3.89554 7.22227 3.61111 7.22222ZM10.8333 7.22222H9.38889C9.10446 7.22227 8.82285 7.2785 8.56022 7.38769C8.29759 7.49689 8.05912 7.65688 7.8585 7.8585C7.65688 8.05912 7.49689 8.29759 7.38769 8.56022C7.2785 8.82285 7.22227 9.10446 7.22222 9.38889V10.8333C7.22222 11.4292 7.46561 11.9708 7.8585 12.3637C8.05912 12.5653 8.29759 12.7253 8.56022 12.8345C8.82285 12.9437 9.10446 13 9.38889 13H10.8333C11.1178 13 11.3994 12.9437 11.662 12.8345C11.9246 12.7253 12.1631 12.5653 12.3637 12.3637C12.5653 12.1631 12.7253 11.9246 12.8345 11.662C12.9437 11.3994 13 11.1178 13 10.8333V9.38889C13 9.10446 12.9437 8.82285 12.8345 8.56022C12.7253 8.29759 12.5653 8.05912 12.3637 7.8585C12.1631 7.65688 11.9246 7.49689 11.662 7.38769C11.3994 7.2785 11.1178 7.22227 10.8333 7.22222Z" fill="#000"/>
</svg>