<svg xmlns="http://www.w3.org/2000/svg" width="12" height="16" viewBox="0 0 12 16">
    <g fill="none" fill-rule="evenodd">
        <g fill="#000" fill-rule="nonzero">
            <g>
                <g>
                    <path d="M6 0C4.348 0 3.001 1.37 3.001 3.048V4.57h-1.5c-.3 0-.535.29-.562.518L.002 15.375c-.03.317.25.626.562.625h10.872c.312.002.591-.308.562-.625L11.06 5.089c-.026-.28-.285-.519-.563-.518h-1.5V3.048C8.999 1.369 7.653 0 6 0zm0 1.143c1.048 0 1.874.84 1.874 1.905V4.57H4.126V3.048c0-1.066.826-1.905 1.874-1.905zM2.017 5.714h7.966l.832 9.143h-9.63l.832-9.143z" transform="translate(-250 -80) translate(250 80)"/>
                </g>
            </g>
        </g>
    </g>
</svg>
