<?xml version="1.0" encoding="UTF-8"?>
<svg width="8px" height="5px" viewBox="0 0 8 5" version="1.1" xmlns="http://www.w3.org/2000/svg" xmlns:xlink="http://www.w3.org/1999/xlink">
    <!-- Generator: Sketch 60.1 (88133) - https://sketch.com -->
    <title>Path</title>
    <desc>Created with Sketch.</desc>
    <g id="Web-Responsive" stroke="none" stroke-width="1" fill="none" fill-rule="evenodd">
        <g id="Icon" transform="translate(-977.000000, -86.000000)" fill="#000000" fill-rule="nonzero">
            <g id="sort-arrows-couple-pointing-up-and-down-copy-2" transform="translate(977.000000, 81.000000)">
                <path d="M6.83843284,5.9091791 L0.474925373,5.9091791 C0.351741294,5.9091791 0.245248756,5.95415423 0.155273632,6.04402985 C0.0652985075,6.13400498 0.0203482587,6.24049751 0.0203482587,6.36360697 C0.0203482587,6.48671642 0.0652985075,6.59328358 0.155273632,6.68320896 L3.3370398,9.86492537 C3.42711443,9.9549005 3.53360697,9.99995025 3.65669154,9.99995025 C3.77977612,9.99995025 3.88636816,9.9549005 3.97626866,9.86492537 L7.15803483,6.68318408 C7.24791045,6.59328358 7.29303483,6.48671642 7.29303483,6.36358209 C7.29303483,6.24049751 7.24793532,6.13400498 7.15803483,6.04400498 C7.06813433,5.95405473 6.96154229,5.9091791 6.83843284,5.9091791 Z" id="Path"></path>
            </g>
        </g>
    </g>
</svg>