<svg xmlns="http://www.w3.org/2000/svg" xmlns:xlink="http://www.w3.org/1999/xlink" width="16" height="15" viewBox="0 0 16 15">
    <defs>
        <path id="wbuq6wsc3a" d="M4.858 14.556c-.587.308-1.313.083-1.621-.504-.123-.233-.165-.501-.12-.761l.6-3.5-2.543-2.477C.7 6.85.69 6.09 1.153 5.617c.184-.19.425-.312.686-.35l3.514-.51 1.57-3.184c.294-.595 1.014-.839 1.608-.545.237.117.428.308.545.545l1.571 3.183 3.514.51c.655.096 1.11.705 1.015 1.36-.038.262-.161.503-.35.688l-2.543 2.478.6 3.499c.113.653-.326 1.273-.98 1.385-.26.045-.527.003-.76-.12L8 12.904l-3.142 1.652z"/>
    </defs>
    <g fill="none" fill-rule="evenodd">
        <g>
            <g>
                <g transform="translate(-343 -36) translate(343 36)">
                    <g fill-rule="nonzero">
                        <use fill="#BE202D" xlink:href="#wbuq6wsc3a"/>
                        <use fill="#000" xlink:href="#wbuq6wsc3a"/>
                    </g>
                </g>
            </g>
        </g>
    </g>
</svg>
