<svg xmlns="http://www.w3.org/2000/svg" xmlns:xlink="http://www.w3.org/1999/xlink" width="16" height="15" viewBox="0 0 16 15">
    <defs>
        <path id="7x1htbdhda" d="M4.858 14.556c-.587.308-1.313.083-1.621-.504-.123-.233-.165-.501-.12-.761l.6-3.5-2.543-2.477C.7 6.85.69 6.09 1.153 5.617c.184-.19.425-.312.686-.35l3.514-.51 1.57-3.184c.294-.595 1.014-.839 1.608-.545.237.117.428.308.545.545l1.571 3.183 3.514.51c.655.096 1.11.705 1.015 1.36-.038.262-.161.503-.35.688l-2.543 2.478.6 3.499c.113.653-.326 1.273-.98 1.385-.26.045-.527.003-.76-.12L8 12.904l-3.142 1.652zm.331-1.982l2.439-1.282c.233-.123.511-.123.744 0l2.439 1.282c.098.051.219.014.27-.084.02-.039.027-.084.02-.127l-.466-2.715c-.044-.26.042-.525.23-.708l1.973-1.923c.08-.078.081-.204.004-.283-.03-.032-.071-.052-.115-.059l-2.726-.396c-.26-.038-.486-.201-.602-.437L8.179 3.37c-.049-.099-.168-.14-.268-.09-.039.019-.07.05-.09.09L6.6 5.841c-.116.237-.341.4-.602.438l-2.726.396c-.11.016-.185.118-.17.227.007.044.027.084.059.115L5.135 8.94c.188.183.274.448.23.708l-.466 2.715c-.019.109.054.212.163.231.044.007.088 0 .127-.02z"/>
    </defs>
    <g fill="none" fill-rule="evenodd">
        <g>
            <g>
                <g transform="translate(-366 -36) translate(366 36)">
                    <g fill-rule="nonzero">
                        <use fill="#AAA" xlink:href="#7x1htbdhda"/>
                        <use fill="#000" xlink:href="#7x1htbdhda"/>
                    </g>
                </g>
            </g>
        </g>
    </g>
</svg>
