<svg width="26" height="20" viewBox="0 0 26 20" fill="none" xmlns="http://www.w3.org/2000/svg">
<path d="M9.1 19.1006L16.9 19.1006C18.095 19.1006 19.2784 18.8652 20.3824 18.4079C21.4865 17.9506 22.4897 17.2803 23.3347 16.4353C24.1797 15.5902 24.85 14.5871 25.3073 13.483C25.7646 12.3789 26 11.1956 26 10.0006C26 8.80556 25.7646 7.62223 25.3073 6.51817C24.85 5.4141 24.1797 4.41093 23.3347 3.56591C22.4897 2.7209 21.4865 2.0506 20.3824 1.59328C19.2784 1.13596 18.095 0.900584 16.9 0.900584L9.1 0.900584C7.90497 0.900584 6.72165 1.13596 5.61758 1.59328C4.51352 2.0506 3.51034 2.7209 2.66533 3.56591C1.82032 4.41092 1.15002 5.4141 0.692697 6.51816C0.235379 7.62223 2.80737e-06 8.80555 7.95547e-07 10.0006C2.59842e-06 11.1956 0.235379 12.3789 0.692696 13.483C1.15002 14.5871 1.82032 15.5902 2.66533 16.4353C3.51034 17.2803 4.51352 17.9506 5.61758 18.4079C6.72164 18.8652 7.90497 19.1006 9.1 19.1006ZM9.1 3.50058C10.8241 3.50076 12.4775 4.18581 13.6965 5.40504C14.9155 6.62427 15.6002 8.27781 15.6 10.0019C15.5998 11.726 14.9148 13.3794 13.6955 14.5983C12.4763 15.8173 10.8228 16.5021 9.0987 16.5019C8.24502 16.5018 7.39972 16.3336 6.61106 16.0068C5.8224 15.68 5.10582 15.2011 4.50224 14.5974C3.89866 13.9937 3.4199 13.2771 3.09329 12.4883C2.76668 11.6996 2.59862 10.8543 2.5987 10.0006C2.59879 9.14691 2.76701 8.3016 3.09378 7.51294C3.42055 6.72428 3.89946 6.0077 4.50316 5.40412C5.10686 4.80054 5.82353 4.32178 6.61226 3.99517C7.40099 3.66856 8.24632 3.5005 9.1 3.50058Z" fill="#AAAAAA"/>
</svg>
