<svg width="26" height="20" viewBox="0 0 26 20" fill="none" xmlns="http://www.w3.org/2000/svg">
<path d="M16.9 0.899417L9.1 0.899416C7.90497 0.899415 6.72164 1.13479 5.61758 1.59211C4.51352 2.04943 3.51034 2.71973 2.66533 3.56474C1.82031 4.40976 1.15001 5.41293 0.692695 6.517C0.235377 7.62106 -1.38215e-06 8.80439 -1.59109e-06 9.99941C-1.80004e-06 11.1944 0.235376 12.3778 0.692694 13.4818C1.15001 14.5859 1.82031 15.5891 2.66533 16.4341C3.51034 17.2791 4.51351 17.9494 5.61758 18.4067C6.72164 18.864 7.90497 19.0994 9.1 19.0994L16.9 19.0994C18.095 19.0994 19.2784 18.864 20.3824 18.4067C21.4865 17.9494 22.4897 17.2791 23.3347 16.4341C24.1797 15.5891 24.85 14.5859 25.3073 13.4818C25.7646 12.3778 26 11.1944 26 9.99942C26 8.80439 25.7646 7.62106 25.3073 6.517C24.85 5.41294 24.1797 4.40976 23.3347 3.56475C22.4897 2.71973 21.4865 2.04943 20.3824 1.59211C19.2784 1.1348 18.095 0.899417 16.9 0.899417ZM16.9 16.4994C15.1759 16.4992 13.5225 15.8142 12.3035 14.595C11.0845 13.3757 10.3998 11.7222 10.4 9.99812C10.4002 8.27404 11.0852 6.62064 12.3045 5.40165C13.5237 4.18267 15.1772 3.49794 16.9013 3.49812C17.755 3.4982 18.6003 3.66643 19.3889 3.9932C20.1776 4.31997 20.8942 4.79887 21.4978 5.40257C22.1013 6.00628 22.5801 6.72295 22.9067 7.51168C23.2333 8.30041 23.4014 9.14574 23.4013 9.99942C23.4012 10.8531 23.233 11.6984 22.9062 12.4871C22.5794 13.2757 22.1005 13.9923 21.4968 14.5959C20.8931 15.1995 20.1765 15.6782 19.3877 16.0048C18.599 16.3314 17.7537 16.4995 16.9 16.4994Z" fill="#00AB66"/>
</svg>
