<svg xmlns="http://www.w3.org/2000/svg" width="40" height="40" viewBox="0 0 40 40">
    <g fill="none" fill-rule="evenodd">
        <g>
            <g>
                <g>
                    <g>
                        <g transform="translate(-1201 -12) translate(1054 12) translate(147)">
                            <circle cx="19.8" cy="19.8" r="19.8" fill="#FFF"/>
                            <g fill="#E4E3E1">
                                <path d="M10.774 0c2.671 0 4.84 2.136 4.84 4.766s-2.169 4.767-4.84 4.767c-2.67 0-4.84-2.136-4.84-4.767 0-2.63 2.17-4.766 4.84-4.766zM10.62 12.857c4.857 0 9.001 2.26 10.62 5.44-1.619 3.179-5.763 5.44-10.62 5.44-4.857 0-9-2.261-10.62-5.44 1.62-3.18 5.763-5.44 10.62-5.44z" transform="translate(8.91 7.92)"/>
                            </g>
                        </g>
                    </g>
                </g>
            </g>
        </g>
    </g>
</svg>
