<svg width="32" height="32" viewBox="0 0 32 32" fill="none" xmlns="http://www.w3.org/2000/svg">
<path d="M24.694 5.89731L3.85226 15.5575C3.42276 15.7566 3.24982 16.2645 3.46598 16.692L8.10004 25.8565C8.3162 26.2839 8.83961 26.4691 9.2691 26.27L30.1108 16.6099C30.5403 16.4108 30.7132 15.9029 30.4971 15.4754L25.863 6.31089C25.6469 5.8834 25.1234 5.69824 24.694 5.89731Z" fill="url(#paint0_linear)"/>
<path d="M12.4847 23.6463L12.6765 22.984L12.0149 22.7172L12.2068 22.0548L11.5453 21.7883L11.7373 21.126L11.0758 20.8595L11.2678 20.1975L10.6063 19.9309L10.7983 19.2686L10.1366 19.0025L10.3286 18.3402L9.66708 18.0737L9.85881 17.411L9.1974 17.1446L9.38941 16.4824L8.728 16.2161L8.92004 15.554L8.25888 15.2881L8.45089 14.6259L7.78957 14.3598L7.96923 13.74L3.84544 15.6519C3.641 15.7466 3.4858 15.9184 3.41399 16.1293C3.34219 16.3403 3.35965 16.5731 3.46254 16.7767L8.05599 25.863C8.15888 26.0666 8.33877 26.2241 8.55609 26.301C8.77341 26.3779 9.01036 26.3679 9.2148 26.2731L12.9665 24.5337L13.1461 23.9135L12.4847 23.6463Z" fill="#FBA600"/>
<g opacity="0.7">
<path d="M20.5896 12.1981L20.5895 12.198L19.4902 11.4476L19.0878 11.1637L15.3417 12.9566L15.3157 13.566L15.3198 13.564L15.2925 14.733L15.2923 14.7451L15.2973 14.7426C15.332 14.8004 15.3876 14.8435 15.453 14.8633C15.5183 14.883 15.5884 14.8779 15.6489 14.8489C15.7094 14.82 15.7558 14.7694 15.7786 14.7074C15.8014 14.6455 15.7988 14.5769 15.7715 14.5157L15.7838 14.5098C15.8184 14.5676 15.8741 14.6107 15.9394 14.6305C16.0048 14.6502 16.0748 14.6451 16.1353 14.6161C16.1958 14.5872 16.2422 14.5366 16.265 14.4746C16.2878 14.4127 16.2853 14.3441 16.258 14.2829L16.271 14.2767C16.3025 14.3294 16.3517 14.3701 16.4101 14.3919C16.4685 14.4137 16.5324 14.4152 16.5908 14.3961C16.6493 14.377 16.6986 14.3385 16.7304 14.2873C16.7622 14.236 16.7745 14.1752 16.7651 14.1152C16.8051 14.1544 16.8566 14.1806 16.9121 14.1899C16.9676 14.1993 17.0243 14.1913 17.0742 14.1673C17.0803 14.1644 17.086 14.1611 17.0917 14.1579C17.0978 14.1555 17.104 14.153 17.11 14.1502C17.1598 14.1265 17.2004 14.088 17.2259 14.0401C17.2515 13.9923 17.2608 13.9375 17.2526 13.8835C17.2927 13.9223 17.344 13.9481 17.3993 13.9572C17.4546 13.9664 17.511 13.9584 17.5607 13.9345C17.5656 13.9321 17.57 13.9295 17.5746 13.9269C17.5796 13.9249 17.5845 13.9231 17.5893 13.9208C17.6414 13.896 17.6834 13.855 17.7087 13.8041C17.7339 13.7532 17.7411 13.6953 17.7291 13.6392C17.7686 13.6821 17.8212 13.7115 17.8789 13.7227C17.9365 13.7339 17.9959 13.7264 18.0479 13.7013C18.0528 13.699 18.0573 13.6963 18.0619 13.6937C18.0667 13.6918 18.0717 13.6899 18.0765 13.6876C18.1287 13.6628 18.1706 13.6218 18.1959 13.5709C18.2211 13.52 18.2283 13.4621 18.2163 13.406C18.2558 13.449 18.3085 13.4783 18.3662 13.4895C18.4239 13.5008 18.4833 13.4932 18.5353 13.4681C18.539 13.4663 18.5423 13.4643 18.5458 13.4624C18.5494 13.4609 18.5531 13.4595 18.5568 13.4578C18.6087 13.4331 18.6505 13.3924 18.6758 13.3418C18.701 13.2912 18.7084 13.2336 18.6968 13.1777C18.7364 13.2202 18.7889 13.2492 18.8463 13.2602C18.9037 13.2712 18.9628 13.2637 19.0146 13.2387C19.0196 13.2363 19.0242 13.2336 19.0288 13.231C19.0339 13.2289 19.0389 13.227 19.0439 13.2247C19.0958 13.2 19.1376 13.1592 19.1629 13.1087C19.1882 13.0581 19.1956 13.0004 19.1839 12.9446C19.2269 12.9905 19.2849 13.0205 19.3476 13.0292C19.4103 13.0379 19.4736 13.0247 19.5264 12.9921C19.5791 12.9594 19.6179 12.9093 19.6358 12.8507C19.6537 12.7921 19.6496 12.7287 19.6241 12.6719L19.63 12.6691C19.6646 12.7268 19.7203 12.77 19.7856 12.7897C19.851 12.8095 19.921 12.8044 19.9815 12.7754C20.042 12.7464 20.0884 12.6958 20.1112 12.6339C20.134 12.572 20.1315 12.5034 20.1042 12.4421L20.1172 12.4359C20.1518 12.4937 20.2074 12.5369 20.2728 12.5567C20.3382 12.5765 20.4083 12.5714 20.4688 12.5425C20.5294 12.5135 20.5758 12.4628 20.5985 12.4008C20.6213 12.3389 20.6187 12.2702 20.5914 12.209L20.5995 12.2051L20.5896 12.1981Z" fill="white"/>
<path d="M18.0383 14.1166L17.8992 14.07L16.9777 14.511L17.8139 14.7909L18.0383 14.1166Z" fill="white"/>
<path d="M21.1191 16.2804L20.8948 16.9546L22.1077 17.3606L22.5516 17.1481L22.3067 16.6779L21.1191 16.2804Z" fill="white"/>
<path d="M17.6991 15.1356L16.5066 14.7365L16.0289 14.9651L16.2565 15.4021L17.4747 15.81L17.6991 15.1356Z" fill="white"/>
<path d="M20.5557 17.9736L20.7153 18.027L21.6366 17.586L20.7801 17.2994L20.5557 17.9736Z" fill="white"/>
<path d="M17.3601 16.1546L16.4981 15.8661L16.9706 16.7736L17.1356 16.8288L17.3601 16.1546Z" fill="white"/>
<path d="M22.065 16.2138L21.5924 15.3062L21.4583 15.2613L21.2339 15.9356L22.065 16.2138Z" fill="white"/>
<path d="M20.9842 15.6295L21.2871 14.7197L20.8145 13.8121L20.3464 15.2183C20.5079 15.4037 20.6186 15.6255 20.6679 15.8623C20.7171 16.0991 20.7032 16.3429 20.6275 16.5703C20.5519 16.7977 20.4169 17.0011 20.2357 17.1607C20.0546 17.3204 19.8332 17.431 19.593 17.482L19.1647 18.769L20.0861 18.328L20.9842 15.6295L20.9842 15.6295Z" fill="white"/>
<path d="M20.0391 14.9519L20.5728 13.348L20.3403 12.9016L19.8723 13.1256L19.3431 14.7159C19.5908 14.7354 19.8305 14.8168 20.0391 14.9519Z" fill="white"/>
<path d="M18.4898 17.2794L18.0002 18.7508L18.2402 19.2117L18.6937 18.9946L19.1878 17.51C18.94 17.4925 18.6996 17.413 18.4898 17.2795" fill="white"/>
<path d="M18.6033 14.8524C18.7096 14.8014 18.8224 14.7637 18.9389 14.7401L19.4012 13.3511L18.4799 13.792L17.286 17.3791L17.7586 18.2866L18.1812 17.0167C18.0365 16.8536 17.9311 16.6612 17.8732 16.4543C17.8153 16.2474 17.8064 16.0313 17.8471 15.8226C17.8878 15.6138 17.9771 15.418 18.1081 15.2498C18.2391 15.0817 18.4085 14.9458 18.6033 14.8524Z" fill="white"/>
<path d="M18.6641 16.2001C18.6536 16.1962 18.6425 16.1942 18.6313 16.1943C18.61 16.1929 18.5886 16.1927 18.5672 16.1936C18.5406 16.1946 18.5142 16.1974 18.4881 16.2021C18.4611 16.2068 18.4349 16.2151 18.4103 16.2268C18.384 16.2376 18.3614 16.2554 18.3451 16.2781C18.3393 16.2873 18.3362 16.2979 18.3361 16.3088C18.336 16.3197 18.339 16.3304 18.3447 16.3399C18.3485 16.3482 18.3544 16.3554 18.3616 16.3611C18.3689 16.3668 18.3774 16.3707 18.3864 16.3726C18.4101 16.3766 18.4343 16.3766 18.4578 16.3724C18.4868 16.3682 18.5221 16.3626 18.5638 16.3556C18.6159 16.3449 18.6691 16.3396 18.7226 16.3398C18.7659 16.3395 18.8089 16.3502 18.8471 16.3709C18.8871 16.396 18.9189 16.4318 18.9383 16.474C18.9599 16.5124 18.9714 16.5552 18.972 16.5985C18.9717 16.636 18.9618 16.6726 18.9433 16.7051C18.9238 16.7385 18.8982 16.7681 18.8677 16.7925C18.8354 16.8186 18.8 16.8409 18.7621 16.8589C18.7216 16.8782 18.6791 16.8936 18.6353 16.905C18.591 16.9167 18.5455 16.9245 18.4995 16.9281C18.4556 16.9317 18.4114 16.9307 18.3676 16.925L18.366 16.7263C18.3792 16.7301 18.3927 16.7323 18.4063 16.7329C18.4323 16.7351 18.4583 16.7357 18.4843 16.7346C18.5169 16.7334 18.5494 16.7297 18.5813 16.7237C18.6154 16.7176 18.6485 16.7069 18.6795 16.6921C18.7061 16.6815 18.729 16.6639 18.7458 16.6412C18.7511 16.6333 18.7541 16.6241 18.7545 16.6145C18.7549 16.605 18.7526 16.5954 18.7479 16.5869C18.7434 16.5775 18.7364 16.5694 18.7276 16.5633C18.7189 16.5573 18.7087 16.5535 18.6982 16.5525C18.6698 16.5497 18.6413 16.5508 18.6134 16.5556C18.5797 16.5607 18.5411 16.5667 18.4975 16.5737C18.4488 16.5819 18.3992 16.5848 18.3497 16.582C18.3119 16.5802 18.2751 16.5686 18.243 16.5485C18.2105 16.5256 18.1846 16.495 18.1677 16.4597C18.1401 16.4107 18.1286 16.3549 18.1348 16.3C18.142 16.2487 18.1639 16.2007 18.198 16.1616C18.2345 16.1192 18.2798 16.085 18.3311 16.0611C18.368 16.0433 18.4071 16.0302 18.4476 16.0221C18.4857 16.0144 18.5245 16.0098 18.5636 16.0084C18.6012 16.0072 18.6356 16.0075 18.6667 16.0093L18.6641 16.2001Z" fill="white"/>
<path d="M19.1129 16.684L18.7002 15.8914L19.0628 15.7178C19.0989 15.7002 19.1388 15.6908 19.1796 15.6906C19.2189 15.6903 19.2581 15.6976 19.2948 15.7121C19.3314 15.7264 19.3652 15.7468 19.3949 15.7723C19.4239 15.7969 19.4478 15.8266 19.4653 15.8599C19.482 15.8916 19.493 15.9257 19.4979 15.9607C19.5027 15.9945 19.5013 16.0287 19.4939 16.0617C19.4865 16.0944 19.4728 16.1253 19.4535 16.1528L19.7838 16.3629L19.5787 16.4611L19.2914 16.2792L19.1656 16.3394L19.2988 16.5951L19.1129 16.684ZM19.0825 16.1798L19.2525 16.0984C19.2673 16.0916 19.279 16.0798 19.2855 16.0652C19.2926 16.0488 19.2957 16.0309 19.2944 16.0129C19.2929 15.9912 19.2866 15.9699 19.276 15.9505C19.2663 15.9307 19.2518 15.9135 19.2337 15.9004C19.2183 15.8893 19.2006 15.8818 19.1819 15.8785C19.1656 15.8756 19.1488 15.8777 19.1341 15.8847L18.9698 15.9633L19.0825 16.1798Z" fill="white"/>
<path d="M19.5519 15.9691C19.5266 15.9204 19.5107 15.8677 19.505 15.8138C19.4989 15.7584 19.5035 15.7025 19.5184 15.6491C19.5339 15.5936 19.5609 15.5419 19.5979 15.4974C19.6392 15.4484 19.6911 15.409 19.7502 15.382C19.818 15.3474 19.8946 15.3315 19.9718 15.3359C20.0396 15.3398 20.1053 15.3626 20.161 15.4015L20.0693 15.5681C20.0458 15.5474 20.0175 15.5326 19.9869 15.5253C19.9595 15.5193 19.9313 15.5188 19.904 15.5238C19.8785 15.5284 19.8538 15.5362 19.8305 15.5471C19.7979 15.5618 19.7697 15.5842 19.7483 15.6123C19.7294 15.6379 19.7168 15.6676 19.7115 15.699C19.7061 15.7305 19.7066 15.7628 19.713 15.7944C19.7192 15.8259 19.7298 15.8565 19.7447 15.8852C19.7606 15.916 19.7815 15.9441 19.8065 15.9686C19.8304 15.9922 19.8584 16.0114 19.8892 16.0253C19.9191 16.0387 19.9515 16.0458 19.9842 16.046C20.0182 16.0462 20.0516 16.0386 20.0816 16.0238C20.1051 16.0124 20.1264 15.9975 20.145 15.9795C20.1648 15.9605 20.1806 15.938 20.1918 15.9132C20.2037 15.8866 20.2082 15.8573 20.2049 15.8281L20.4027 15.8436C20.4068 15.891 20.3976 15.9383 20.3762 15.9804C20.3538 16.026 20.3233 16.0673 20.2861 16.1023C20.2498 16.1375 20.2079 16.1667 20.162 16.1889C20.1068 16.2161 20.0456 16.2303 19.9833 16.2305C19.9236 16.2307 19.8643 16.2192 19.8087 16.197C19.7535 16.1749 19.7027 16.1435 19.6585 16.1043C19.6147 16.0659 19.5786 16.0201 19.552 15.9691" fill="white"/>
</g>
<defs>
<linearGradient id="paint0_linear" x1="5.78301" y1="21.2742" x2="27.7999" y2="10.1413" gradientUnits="userSpaceOnUse">
<stop stop-color="#ED0101"/>
<stop offset="0.895833" stop-color="#CE0000"/>
<stop offset="1" stop-color="#BB0000"/>
</linearGradient>
</defs>
</svg>
