<svg width="21" height="21" viewBox="0 0 21 21" fill="none" xmlns="http://www.w3.org/2000/svg">
<path d="M20.9996 10.5C20.9996 11.2742 19.6978 11.8883 19.5368 12.6127C19.3707 13.361 20.2796 14.4912 19.9619 15.1675C19.6386 15.8535 18.2054 15.8283 17.7461 16.4177C17.2868 17.007 17.6249 18.433 17.049 18.9058C16.473 19.3787 15.1932 18.7214 14.5235 19.0522C13.8644 19.3778 13.569 20.8142 12.8385 20.9839C12.1307 21.1489 11.2582 19.988 10.5019 19.988C9.74558 19.988 8.87306 21.1472 8.16533 20.9839C7.43478 20.8142 7.13943 19.3778 6.48029 19.0522C5.81059 18.7214 4.53033 19.3765 3.95485 18.9058C3.37937 18.4351 3.71528 17.0083 3.25346 16.4164C2.79163 15.8244 1.36096 15.8535 1.03773 15.1662C0.719986 14.4912 1.62926 13.361 1.46279 12.6114C1.3018 11.8883 0 11.2742 0 10.5C0 9.72574 1.3018 9.11171 1.46279 8.38727C1.62884 7.639 0.719986 6.50881 1.03773 5.83243C1.36096 5.14782 2.79417 5.1738 3.25346 4.58359C3.71274 3.99338 3.37472 2.567 3.95274 2.09413C4.53075 1.62127 5.80974 2.2786 6.47818 1.94777C7.13732 1.62214 7.43267 0.1858 8.16322 0.0160547C8.87095 -0.148927 9.74347 1.01201 10.4998 1.01201C11.2561 1.01201 12.1286 -0.147195 12.8364 0.0160547C13.5669 0.1858 13.8623 1.62301 14.5214 1.94777C15.1898 2.2786 16.4714 1.62301 17.049 2.09413C17.6265 2.56526 17.2864 3.99164 17.7482 4.58359C18.2101 5.17553 19.6407 5.14652 19.964 5.83373C20.2817 6.50881 19.3724 7.639 19.5389 8.38857C19.6978 9.11171 20.9996 9.72574 20.9996 10.5Z" fill="white"/>
<path d="M20.9996 10.5C20.9996 11.2742 19.6978 11.8883 19.5368 12.6127C19.3707 13.361 20.2796 14.4912 19.9619 15.1675C19.6386 15.8535 18.2054 15.8283 17.7461 16.4177C17.2868 17.007 17.6249 18.433 17.049 18.9058C16.473 19.3787 15.1932 18.7214 14.5235 19.0522C13.8644 19.3778 13.569 20.8142 12.8385 20.9839C12.1307 21.1489 11.2582 19.988 10.5019 19.988C9.74558 19.988 8.87306 21.1472 8.16533 20.9839C7.43478 20.8142 7.13943 19.3778 6.48029 19.0522C5.81059 18.7214 4.53033 19.3765 3.95485 18.9058C3.37937 18.4351 3.71528 17.0083 3.25346 16.4164C2.79163 15.8244 1.36096 15.8535 1.03773 15.1662C0.719986 14.4912 1.62926 13.361 1.46279 12.6114C1.3018 11.8883 0 11.2742 0 10.5C0 9.72574 1.3018 9.11171 1.46279 8.38727C1.62884 7.639 0.719986 6.50881 1.03773 5.83243C1.36096 5.14782 2.79417 5.1738 3.25346 4.58359C3.71274 3.99338 3.37472 2.567 3.95274 2.09413C4.53075 1.62127 5.80974 2.2786 6.47818 1.94777C7.13732 1.62214 7.43267 0.1858 8.16322 0.0160547C8.87095 -0.148927 9.74347 1.01201 10.4998 1.01201C11.2561 1.01201 12.1286 -0.147195 12.8364 0.0160547C13.5669 0.1858 13.8623 1.62301 14.5214 1.94777C15.1898 2.2786 16.4714 1.62301 17.049 2.09413C17.6265 2.56526 17.2864 3.99164 17.7482 4.58359C18.2101 5.17553 19.6407 5.14652 19.964 5.83373C20.2817 6.50881 19.3724 7.639 19.5389 8.38857C19.6978 9.11171 20.9996 9.72574 20.9996 10.5Z" fill="#FFCDCF"/>
<path d="M1.46279 7.73723C1.57983 7.21024 1.16406 6.49402 1.01871 5.88086C0.821392 6.40049 1.28364 7.16867 1.43617 7.8273C1.44683 7.79786 1.45572 7.76778 1.46279 7.73723V7.73723ZM19.5368 7.73723C19.5439 7.76778 19.5527 7.79786 19.5634 7.8273C19.7159 7.16867 20.1782 6.40222 19.9809 5.88086C19.8376 6.49402 19.4198 7.20851 19.5368 7.73723ZM1.43617 12.5221C1.48222 12.3225 1.50039 12.1324 1.46279 11.9627C1.32504 11.3426 0.351542 10.8026 0.0743647 10.1747C0.0269977 10.2762 0.00162847 10.387 0 10.4995C0 11.2413 1.19491 11.8362 1.43617 12.5221ZM19.5368 11.9627C19.4992 12.1329 19.5174 12.3225 19.5634 12.5221C19.8047 11.8362 21 11.2413 21 10.4995C20.9984 10.387 20.973 10.2762 20.9256 10.1747C20.648 10.8026 19.6745 11.3426 19.5368 11.9627ZM19.9619 14.5162C19.6386 15.2021 18.2054 15.177 17.7461 15.7664C17.2868 16.3557 17.6249 17.7829 17.049 18.2558C16.473 18.7287 15.1932 18.0713 14.5235 18.4022C13.8644 18.7278 13.569 20.1641 12.8385 20.3339C12.1307 20.4989 11.2582 19.3379 10.5019 19.3379C9.74558 19.3379 8.87306 20.4971 8.16533 20.3339C7.43478 20.1641 7.13943 18.7278 6.48029 18.4022C5.81059 18.0713 4.53033 18.7265 3.95485 18.2558C3.37937 17.7851 3.71528 16.3583 3.25346 15.7664C2.79163 15.1744 1.36096 15.2034 1.03773 14.5162C1.03054 14.5006 1.02463 14.4846 1.01871 14.4686C0.957446 14.7262 0.943925 14.9661 1.03773 15.1657C1.36096 15.8517 2.79417 15.8257 3.25346 16.4159C3.71274 17.0061 3.37472 18.4325 3.95274 18.9053C4.53075 19.3782 5.80847 18.7209 6.47818 19.0517C7.13732 19.3773 7.43267 20.8137 8.16322 20.9834C8.87095 21.1484 9.74347 19.9875 10.4998 19.9875C11.2561 19.9875 12.1286 21.1467 12.8364 20.9834C13.5669 20.8137 13.8623 19.3773 14.5214 19.0517C15.1898 18.7209 16.4714 19.3765 17.049 18.9053C17.6265 18.4342 17.2864 17.0078 17.7482 16.4159C18.2101 15.8239 19.6407 15.853 19.964 15.1657C20.0578 14.9661 20.0442 14.7262 19.983 14.4686C19.975 14.4833 19.969 14.5006 19.9619 14.5162Z" fill="#FFCDCF"/>
<path d="M1.43617 12.5221C1.48222 12.3225 1.50039 12.1324 1.46279 11.9627C1.32504 11.3426 0.351542 10.8026 0.0743647 10.1747C0.0269977 10.2762 0.00162847 10.387 0 10.4995C0 11.2413 1.19491 11.8362 1.43617 12.5221ZM19.5368 7.73723C19.5439 7.76778 19.5527 7.79786 19.5634 7.8273C19.7159 7.16867 20.1782 6.40222 19.9809 5.88086C19.8376 6.49402 19.4198 7.20851 19.5368 7.73723ZM1.46279 7.73723C1.57983 7.21024 1.16406 6.49402 1.01871 5.88086C0.821392 6.40049 1.28364 7.16867 1.43617 7.8273C1.44683 7.79786 1.45572 7.76778 1.46279 7.73723V7.73723ZM19.5368 11.9627C19.4992 12.1329 19.5174 12.3225 19.5634 12.5221C19.8047 11.8362 21 11.2413 21 10.4995C20.9984 10.387 20.973 10.2762 20.9256 10.1747C20.648 10.8026 19.6745 11.3426 19.5368 11.9627ZM4.11964 19.0032C4.40104 19.1223 4.78047 19.0842 5.16919 19.0326C4.88399 18.9144 4.50498 18.9517 4.11964 19.0032Z" fill="#FFCDCF"/>
<path d="M10.4998 19.2186C14.4983 19.2186 17.7398 15.8966 17.7398 11.7988C17.7398 7.70089 14.4983 4.37891 10.4998 4.37891C6.50122 4.37891 3.25977 7.70089 3.25977 11.7988C3.25977 15.8966 6.50122 19.2186 10.4998 19.2186Z" fill="#FFCDCF"/>
<path d="M10.4998 17.9198C14.4983 17.9198 17.7398 14.5978 17.7398 10.4999C17.7398 6.40206 14.4983 3.08008 10.4998 3.08008C6.50122 3.08008 3.25977 6.40206 3.25977 10.4999C3.25977 14.5978 6.50122 17.9198 10.4998 17.9198Z" fill="#ED1C24"/>
<path d="M10.4998 16.6209C8.68936 16.6208 6.94468 15.9256 5.60968 14.6724C4.27468 13.4191 3.44623 11.6988 3.28765 9.85059C3.26948 10.0645 3.25977 10.281 3.25977 10.5001C3.25977 12.468 4.02255 14.3553 5.38031 15.7468C6.73807 17.1382 8.57959 17.92 10.4998 17.92C12.4199 17.92 14.2614 17.1382 15.6192 15.7468C16.977 14.3553 17.7398 12.468 17.7398 10.5001C17.7398 10.281 17.73 10.0645 17.7119 9.85059C17.5533 11.6988 16.7248 13.4191 15.3898 14.6724C14.0548 15.9256 12.3102 16.6208 10.4998 16.6209Z" fill="#ED1C24"/>
<path d="M7.67772 13.6381C7.61509 13.638 7.55388 13.6189 7.50181 13.5833C7.44975 13.5476 7.40918 13.4969 7.38521 13.4376C7.36125 13.3783 7.35498 13.313 7.36718 13.25C7.37939 13.1871 7.40952 13.1292 7.45379 13.0838L13.0218 7.37743C13.0509 7.34552 13.0858 7.31993 13.1247 7.30218C13.1636 7.28443 13.2055 7.27488 13.2481 7.27411C13.2906 7.27334 13.3329 7.28137 13.3724 7.2977C13.4118 7.31403 13.4477 7.33835 13.4778 7.36919C13.5079 7.40002 13.5316 7.43676 13.5475 7.4772C13.5635 7.51764 13.5713 7.56095 13.5705 7.60456C13.5698 7.64817 13.5605 7.69117 13.5431 7.73101C13.5258 7.77085 13.5009 7.8067 13.4697 7.83643L7.90166 13.5428C7.87235 13.5731 7.83746 13.5971 7.79902 13.6135C7.76058 13.6298 7.71935 13.6382 7.67772 13.6381V13.6381ZM12.3559 13.9776C12.0001 13.9773 11.6554 13.8507 11.3805 13.6192C11.1056 13.3877 10.9175 13.0657 10.8483 12.708C10.7791 12.3503 10.833 11.9791 11.0009 11.6576C11.1688 11.3361 11.4403 11.0842 11.7691 10.9448C12.0979 10.8055 12.4637 10.7872 12.8041 10.8933C13.1445 10.9993 13.4386 11.223 13.6361 11.5263C13.8336 11.8296 13.9225 12.1937 13.8874 12.5566C13.8524 12.9195 13.6957 13.2587 13.4439 13.5164V13.5164C13.3012 13.663 13.1316 13.7791 12.9449 13.8583C12.7581 13.9374 12.558 13.978 12.3559 13.9776ZM12.3559 11.4743C12.1466 11.4743 11.9437 11.5488 11.7819 11.685C11.6201 11.8212 11.5093 12.0107 11.4685 12.2211C11.4278 12.4316 11.4594 12.6501 11.5582 12.8393C11.657 13.0285 11.8167 13.1768 12.0102 13.2588C12.2036 13.3409 12.4189 13.3517 12.6192 13.2893C12.8196 13.227 12.9926 13.0954 13.1089 12.9169C13.2252 12.7384 13.2775 12.5242 13.2569 12.3106C13.2364 12.0971 13.1442 11.8975 12.9961 11.7458C12.9121 11.6595 12.8123 11.5911 12.7025 11.5445C12.5926 11.4979 12.4748 11.474 12.3559 11.4743ZM8.64447 10.1739C8.28865 10.1737 7.94393 10.047 7.66901 9.81551C7.3941 9.58401 7.20602 9.26199 7.1368 8.9043C7.06759 8.54662 7.12153 8.1754 7.28943 7.8539C7.45733 7.5324 7.72881 7.28051 8.05761 7.14115C8.38641 7.00178 8.75219 6.98356 9.09263 7.08959C9.43306 7.19562 9.7271 7.41934 9.92463 7.72263C10.1222 8.02593 10.211 8.39003 10.1759 8.75291C10.1409 9.11579 9.98418 9.45499 9.73247 9.71273C9.58971 9.85927 9.4201 9.97546 9.23338 10.0546C9.04666 10.1337 8.84652 10.1743 8.64447 10.1739ZM8.64447 7.67059C8.43517 7.6707 8.23239 7.74519 8.07067 7.88136C7.90896 8.01753 7.79832 8.20696 7.75761 8.41736C7.7169 8.62776 7.74863 8.84611 7.84741 9.03522C7.94618 9.22433 8.10588 9.37249 8.2993 9.45445C8.49272 9.53641 8.70788 9.5471 8.90812 9.4847C9.10837 9.4223 9.28131 9.29067 9.39747 9.11224C9.51363 8.93381 9.56583 8.71963 9.54517 8.50618C9.52451 8.29273 9.43227 8.09322 9.28417 7.94166C9.20017 7.85559 9.10043 7.78735 8.99066 7.74084C8.88089 7.69432 8.76325 7.67045 8.64447 7.67059V7.67059Z" fill="white"/>
</svg>
