<?xml version="1.0" standalone="no"?>
<!DOCTYPE svg PUBLIC "-//W3C//DTD SVG 20010904//EN"
 "http://www.w3.org/TR/2001/REC-SVG-20010904/DTD/svg10.dtd">
<svg version="1.0" xmlns="http://www.w3.org/2000/svg"
 width="500.000000pt" height="500.000000pt" viewBox="0 0 500.000000 500.000000"
 preserveAspectRatio="xMidYMid meet">

<g transform="translate(0.000000,500.000000) scale(0.100000,-0.100000)"
fill="#000000" stroke="none">
<path d="M2533 4388 c-7 -8 -24 -39 -38 -69 -14 -30 -32 -65 -40 -79 -36 -61
1 -221 86 -376 50 -92 50 -107 0 -27 -40 62 -88 166 -111 237 -20 62 -29 24
-29 -121 0 -127 16 -220 44 -263 13 -21 82 -73 123 -94 30 -15 35 -15 66 -1
18 9 47 31 65 49 l33 34 -35 68 c-84 167 -141 398 -150 598 -2 48 -4 57 -14
44z m47 -418 c18 -63 35 -122 37 -130 2 -8 -10 12 -27 45 -58 111 -89 265 -75
372 l8 58 12 -115 c7 -64 27 -166 45 -230z m-89 -138 c25 -31 56 -73 69 -92
20 -30 15 -27 -32 18 -52 51 -109 132 -91 132 4 0 29 -26 54 -58z m29 -119
c41 -42 47 -52 25 -38 -42 25 -85 66 -85 82 0 7 1 13 3 13 1 0 27 -26 57 -57z"/>
<path d="M2015 4158 c-24 -22 -38 -45 -42 -70 l-6 -38 32 11 c17 6 35 19 40
28 11 21 24 101 17 101 -4 0 -22 -15 -41 -32z"/>
<path d="M1862 4104 c-12 -8 -31 -33 -42 -55 l-20 -39 24 0 c32 0 81 42 95 80
9 27 8 30 -12 30 -13 0 -33 -7 -45 -16z"/>
<path d="M3180 4101 c0 -31 33 -61 74 -68 l38 -6 -16 31 c-15 29 -60 62 -86
62 -5 0 -10 -9 -10 -19z"/>
<path d="M2124 4059 c-5 -8 -9 -59 -9 -113 0 -98 16 -163 44 -180 7 -5 7 -13
-2 -27 -10 -16 -9 -25 6 -50 9 -17 17 -39 17 -50 0 -10 15 -46 33 -80 31 -59
83 -107 133 -123 12 -4 24 -16 27 -27 5 -19 12 -21 74 -18 47 3 82 11 113 27
l45 24 -29 -25 c-16 -14 -50 -31 -75 -37 -25 -7 -54 -14 -63 -17 -28 -7 -21
-23 10 -23 39 0 103 19 133 40 57 41 76 131 31 147 -9 4 -38 22 -64 40 -211
147 -346 305 -401 467 -10 30 -16 36 -23 25z m152 -321 c31 -32 52 -58 47 -58
-20 0 -173 180 -173 203 0 7 16 -10 35 -37 19 -28 60 -76 91 -108z m47 -97
c37 -24 67 -45 67 -47 0 -6 -35 12 -98 52 -29 19 -56 34 -60 34 -4 0 -14 8
-23 18 -34 39 -31 45 6 16 22 -17 70 -50 108 -73z m88 -114 c13 -10 -18 3 -69
30 -51 26 -98 53 -104 60 -12 15 135 -62 173 -90z m-16 -43 c28 -13 39 -21 25
-18 -14 4 -47 17 -75 30 -27 13 -39 21 -25 18 14 -4 48 -17 75 -30z"/>
<path d="M3400 4046 c0 -13 6 -44 14 -69 8 -28 10 -47 4 -47 -5 0 4 -12 21
-26 41 -34 61 -20 61 42 0 34 -7 51 -30 77 -38 44 -70 54 -70 23z"/>
<path d="M1975 4000 c3 -5 16 -10 28 -10 18 0 19 2 7 10 -20 13 -43 13 -35 0z"/>
<path d="M1918 3979 c24 -12 46 -18 50 -14 12 11 -30 35 -62 35 -31 0 -31 0
12 -21z"/>
<path d="M3230 3991 c0 -14 45 -25 66 -17 22 8 17 12 -28 20 -24 4 -38 3 -38
-3z"/>
<path d="M3710 3946 c-21 -55 -31 -121 -25 -158 8 -45 3 -46 -37 -13 -22 19
-41 25 -74 25 -46 0 -104 23 -104 40 0 14 -74 13 -121 -1 -21 -7 -36 -16 -32
-22 11 -18 109 -57 145 -57 21 0 58 5 83 12 42 11 50 10 91 -11 25 -14 58 -41
75 -62 27 -35 32 -37 54 -27 24 11 25 16 25 94 0 83 -16 140 -53 189 -15 20
-16 19 -27 -9z"/>
<path d="M1403 3937 c-30 -65 -35 -108 -22 -197 l12 -87 63 65 c65 68 77 88
31 51 l-27 -20 0 53 c0 59 -13 115 -33 142 -12 17 -14 16 -24 -7z"/>
<path d="M1672 3948 c-23 -23 -4 -62 24 -51 22 8 16 22 -6 16 -23 -6 -28 15
-8 35 7 7 10 12 7 12 -3 0 -10 -5 -17 -12z"/>
<path d="M3845 3780 c-4 -27 -4 -63 0 -80 7 -32 7 -32 22 -10 13 18 22 21 49
17 19 -3 34 -3 34 0 0 15 -45 81 -70 100 l-28 23 -7 -50z"/>
<path d="M1137 3723 c-52 -75 -58 -131 -26 -224 21 -60 22 -128 4 -184 -5 -15
-4 -16 3 -5 5 8 15 39 22 67 10 44 21 61 66 103 63 57 84 91 84 138 0 35 -6
38 -32 18 -22 -16 -38 -58 -38 -100 0 -23 -9 -41 -29 -60 l-29 -28 14 64 c16
77 17 172 0 217 l-12 33 -27 -39z"/>
<path d="M1518 3690 c-66 -27 -121 -63 -141 -93 -27 -41 -61 -74 -84 -81 -23
-7 -49 -33 -41 -42 10 -10 54 7 84 32 21 19 24 24 9 19 -17 -5 -17 -3 5 22 46
51 49 52 170 50 112 -2 117 -1 177 30 34 18 64 37 67 42 10 15 -83 41 -143 40
-31 0 -77 -9 -103 -19z m180 -7 c-10 -2 -26 -2 -35 0 -10 3 -2 5 17 5 19 0 27
-2 18 -5z"/>
<path d="M3412 3693 c-23 -8 -40 -18 -38 -21 2 -4 35 -23 72 -42 59 -30 78
-35 158 -38 90 -4 91 -3 103 22 11 25 9 28 -32 52 -24 14 -58 29 -77 34 -48
14 -136 11 -186 -7z"/>
<path d="M2850 3610 c0 -5 -25 -33 -55 -62 -30 -28 -53 -54 -50 -56 3 -3 -7
-20 -20 -38 -21 -28 -24 -38 -15 -54 6 -11 7 -19 2 -18 -5 2 -19 -8 -33 -22
-13 -15 -18 -18 -10 -8 8 10 11 18 6 18 -4 0 -1 8 6 18 7 9 -8 -4 -34 -30 -26
-26 -61 -50 -79 -53 -22 -5 -27 -9 -17 -16 19 -12 -6 -12 -48 0 -20 6 -35 6
-38 0 -4 -5 -22 -9 -41 -9 -19 0 -33 3 -31 8 3 4 -5 7 -18 7 -13 0 -21 -3 -18
-7 6 -10 6 -10 -50 7 -81 24 -270 1 -334 -41 -37 -23 -27 -36 15 -18 58 24
193 66 199 61 2 -3 -45 -21 -106 -42 -111 -37 -161 -65 -161 -91 0 -21 13 -18
82 20 35 19 79 37 98 40 25 5 15 -2 -34 -23 -71 -31 -126 -74 -126 -98 0 -26
29 -24 72 4 53 36 133 81 98 56 -58 -43 -80 -66 -80 -84 0 -39 46 -16 150 76
95 83 105 87 176 70 32 -8 91 -14 130 -15 136 0 211 41 299 165 49 68 97 99
170 110 33 5 53 0 120 -33 44 -22 108 -60 143 -86 34 -25 62 -44 62 -42 0 9
-92 95 -146 137 -97 75 -122 90 -126 78 -2 -6 -15 5 -28 25 -14 20 -32 38 -40
40 -39 12 -90 15 -90 6z m61 -36 c12 -15 11 -16 -10 -9 -17 5 -22 4 -18 -6 2
-8 10 -13 16 -11 6 1 11 -2 11 -8 0 -16 -37 -12 -44 5 -3 8 2 21 10 30 19 19
19 19 35 -1z m-106 -54 c4 -6 -1 -7 -11 -3 -10 4 -15 2 -11 -3 3 -6 -4 -21
-16 -35 -12 -14 -18 -19 -13 -12 5 8 6 16 2 20 -7 7 22 43 35 43 4 0 11 -4 14
-10z m-83 -102 c-7 -7 -12 -8 -12 -2 0 6 3 14 7 17 3 4 9 5 12 2 2 -3 -1 -11
-7 -17z m-552 -178 c-8 -5 -19 -10 -25 -10 -5 0 -3 5 5 10 8 5 20 10 25 10 6
0 3 -5 -5 -10z"/>
<path d="M1942 3591 c-10 -6 -11 -13 -1 -34 14 -30 17 -31 39 -16 12 9 12 10
-4 5 -13 -5 -17 -2 -12 9 3 10 -1 15 -12 15 -15 1 -15 2 2 15 21 16 11 21 -12
6z"/>
<path d="M3153 3553 c-14 -28 -8 -47 7 -23 7 11 12 11 23 2 11 -10 17 -9 26 2
9 11 6 17 -13 30 -32 20 -29 21 -43 -11z m42 -4 c11 -17 -1 -21 -15 -4 -8 9
-8 15 -2 15 6 0 14 -5 17 -11z"/>
<path d="M1844 3544 c-10 -8 -13 -12 -5 -8 9 4 21 -2 32 -17 10 -13 19 -19 19
-12 0 6 -5 15 -11 18 -6 4 -8 13 -5 21 7 18 -6 18 -30 -2z"/>
<path d="M3610 3540 l-35 -18 37 -7 c38 -7 43 -6 85 19 52 29 -30 35 -87 6z"/>
<path d="M4155 3470 c-21 -52 -30 -95 -34 -163 l-6 -92 -19 50 c-29 74 -44 94
-66 88 -11 -3 -33 0 -50 5 -16 6 -30 7 -30 2 0 -4 -3 -15 -6 -24 -4 -11 8 -17
56 -27 59 -11 87 -33 78 -61 -2 -6 8 -23 23 -39 15 -16 39 -59 54 -96 15 -38
42 -95 61 -128 26 -47 34 -55 34 -35 -1 14 -14 43 -30 64 -40 53 -40 98 2 179
29 55 33 71 33 142 0 68 -4 88 -27 130 -44 82 -42 82 -73 5z"/>
<path d="M919 3468 c-26 -51 -32 -75 -32 -128 -1 -36 5 -82 12 -103 l13 -38
56 6 c32 4 63 13 70 21 7 9 8 10 0 4 -21 -18 -23 -12 -23 73 0 60 -6 101 -24
155 -14 39 -28 72 -33 72 -4 0 -22 -28 -39 -62z"/>
<path d="M3861 3521 c-17 -11 -7 -41 14 -41 8 0 15 4 15 10 0 5 -7 7 -16 3
-12 -4 -15 -2 -12 8 3 8 13 13 23 11 10 -2 14 1 10 7 -8 13 -15 14 -34 2z"/>
<path d="M1774 3495 c-7 -17 3 -35 19 -35 9 0 8 3 -1 8 -7 5 -10 16 -6 25 3 9
3 17 0 17 -4 0 -9 -7 -12 -15z"/>
<path d="M3262 3494 c-12 -8 -22 -21 -22 -27 0 -7 7 -4 14 6 17 22 25 22 19
-2 -3 -10 0 -22 6 -25 7 -5 11 5 11 28 0 42 1 41 -28 20z"/>
<path d="M1807 3481 c4 -14 1 -26 -8 -32 -8 -5 -9 -9 -3 -9 6 0 17 7 24 16 11
12 10 18 -3 31 -15 15 -16 14 -10 -6z"/>
<path d="M1338 3458 c5 -5 16 -8 23 -6 8 3 3 7 -10 11 -17 4 -21 3 -13 -5z"/>
<path d="M1710 3423 c0 -10 4 -24 9 -31 6 -10 10 -9 14 7 3 12 13 21 24 22 16
0 16 1 -2 9 -32 14 -45 11 -45 -7z m30 3 c0 -3 -4 -8 -10 -11 -5 -3 -10 -1
-10 4 0 6 5 11 10 11 6 0 10 -2 10 -4z"/>
<path d="M3345 3430 c-10 -17 5 -49 27 -55 25 -9 40 5 27 25 -9 12 -10 12 -5
-3 4 -14 1 -18 -12 -15 -11 2 -17 13 -17 31 1 27 -9 35 -20 17z"/>
<path d="M3390 3436 c0 -2 7 -7 16 -10 8 -3 12 -2 9 4 -6 10 -25 14 -25 6z"/>
<path d="M1051 3338 l1 -92 19 34 c29 55 24 150 -7 150 -12 0 -14 -18 -13 -92z"/>
<path d="M3650 3422 c0 -9 64 -42 81 -42 6 0 -3 11 -19 25 -29 24 -62 33 -62
17z"/>
<path d="M1619 3373 c-13 -16 -18 -23 -10 -16 11 9 19 8 40 -5 l26 -16 -18 21
c-11 12 -16 27 -12 32 12 20 -1 11 -26 -16z"/>
<path d="M2181 3344 c-97 -21 -144 -35 -138 -40 5 -6 227 45 227 52 0 6 -18 4
-89 -12z"/>
<path d="M3451 3346 c-9 -11 -10 -20 -1 -35 13 -25 23 -26 44 -5 23 23 19 30
-5 8 -17 -16 -22 -16 -29 -4 -14 21 -6 35 18 34 12 0 19 3 16 8 -8 13 -30 9
-43 -6z"/>
<path d="M3737 3321 l-38 -6 42 -27 c43 -28 101 -35 157 -19 l24 6 -29 21
c-32 24 -99 34 -156 25z"/>
<path d="M1081 3227 c-13 -21 -12 -21 5 -5 10 10 16 20 13 22 -3 3 -11 -5 -18
-17z"/>
<path d="M1785 3210 c-4 -17 -18 -44 -31 -60 -51 -59 -135 -66 -379 -30 -125
19 -176 22 -305 17 -174 -6 -251 -22 -347 -70 -82 -40 -136 -86 -170 -144 -21
-37 -26 -57 -26 -114 0 -59 4 -73 27 -104 44 -58 97 -79 196 -79 70 -1 93 3
128 22 38 20 71 66 58 80 -3 2 -29 -6 -58 -19 -38 -16 -72 -23 -118 -23 -76
-1 -119 17 -138 57 -20 42 -6 84 47 136 80 81 180 116 381 133 108 9 152 8
320 -10 210 -22 271 -19 347 15 46 21 100 82 109 122 3 14 7 32 10 39 6 20
-14 62 -30 62 -8 0 -17 -14 -21 -30z"/>
<path d="M4013 3155 c0 -8 4 -12 9 -9 4 3 8 0 8 -6 0 -7 5 -10 11 -8 12 4 13
23 2 23 -5 0 -13 3 -19 7 -6 4 -11 1 -11 -7z"/>
<path d="M4057 3123 c-3 -5 6 -14 19 -20 22 -10 25 -9 22 5 -3 18 -33 29 -41
15z"/>
<path d="M3002 3103 c11 -3 18 -17 21 -41 l4 -37 1 37 c1 25 7 38 20 41 9 3
-1 5 -23 5 -22 0 -32 -2 -23 -5z"/>
<path d="M3114 3076 c1 -26 6 -41 16 -43 10 -3 11 -2 3 4 -6 4 -13 24 -16 43
-4 34 -4 33 -3 -4z"/>
<path d="M3170 3076 c0 -19 -5 -37 -10 -39 -6 -3 -5 -4 2 -3 14 3 30 76 16 76
-4 0 -8 -15 -8 -34z"/>
<path d="M3240 3071 c0 -23 5 -41 10 -41 6 0 10 6 10 14 0 7 9 16 21 19 31 8
21 41 -14 45 -25 3 -27 1 -27 -37z m43 14 c1 -5 -6 -11 -15 -13 -11 -2 -18 3
-18 13 0 17 30 18 33 0z"/>
<path d="M3357 3103 c-14 -13 -7 -32 14 -38 12 -4 18 -12 15 -21 -3 -8 -1 -14
4 -14 19 0 10 38 -10 43 -11 3 -20 11 -20 17 0 7 8 10 20 7 11 -3 20 -1 20 4
0 10 -33 12 -43 2z"/>
<path d="M3460 3090 c-11 -21 2 -60 20 -60 6 0 5 8 -1 19 -16 24 -6 48 23 54
21 4 20 4 -4 6 -18 1 -31 -6 -38 -19z"/>
<path d="M3601 3068 c1 -24 3 -36 6 -27 2 10 13 19 24 22 28 7 21 41 -9 45
-20 3 -22 -1 -21 -40z m39 17 c0 -8 -7 -15 -15 -15 -8 0 -15 7 -15 15 0 8 7
15 15 15 8 0 15 -7 15 -15z"/>
<path d="M3711 3072 c-21 -41 -18 -55 7 -30 10 10 17 10 32 0 24 -15 25 -7 1
37 l-19 35 -21 -42z m29 -2 c0 -5 -5 -10 -11 -10 -5 0 -7 5 -4 10 3 6 8 10 11
10 2 0 4 -4 4 -10z"/>
<path d="M3509 3061 c7 -5 10 -14 7 -20 -4 -6 -2 -11 3 -11 6 0 11 9 11 20 0
12 -7 20 -17 20 -14 0 -15 -2 -4 -9z"/>
<path d="M3350 3040 c0 -5 5 -10 11 -10 5 0 7 5 4 10 -3 6 -8 10 -11 10 -2 0
-4 -4 -4 -10z"/>
<path d="M2668 2999 c-10 -5 -18 -16 -18 -24 0 -11 -8 -13 -30 -9 -70 15 -57
-104 18 -166 20 -16 41 -30 47 -30 6 0 19 15 30 33 27 45 28 156 1 186 -22 24
-24 24 -48 10z"/>
<path d="M3934 2988 c-4 -7 -3 -10 1 -5 9 8 47 -22 40 -32 -2 -4 12 -25 31
-46 21 -26 32 -33 28 -20 -5 18 -4 18 8 -2 7 -12 17 -22 21 -22 4 0 15 -7 23
-16 9 -8 20 -13 25 -10 5 3 17 1 27 -4 14 -7 19 -6 19 4 0 8 -4 12 -8 9 -12
-7 -59 15 -57 27 2 6 -4 14 -12 16 -12 4 -12 3 -2 -5 11 -7 11 -10 -2 -15 -9
-4 -15 -3 -15 1 3 20 -6 32 -60 80 -42 37 -62 48 -67 40z"/>
<path d="M1072 2963 c-48 -4 -51 -6 -42 -23 7 -13 10 -201 10 -537 0 -494 -1
-519 -20 -555 -10 -20 -16 -39 -12 -42 4 -2 27 9 51 25 56 37 105 38 155 4 34
-23 83 -35 74 -17 -39 75 -38 64 -36 539 l3 458 305 5 c168 3 306 7 307 8 1 1
9 9 17 18 9 8 16 20 16 25 0 5 -130 9 -320 9 -349 0 -352 0 -316 55 9 14 15
25 14 26 -16 3 -165 5 -206 2z"/>
<path d="M4118 2912 c29 -27 54 -58 55 -70 1 -22 16 -32 55 -37 20 -3 21 -1
10 12 -6 8 -13 22 -14 30 -2 8 -6 18 -10 21 -4 4 -4 -1 -1 -10 9 -27 -6 -22
-28 9 -39 52 -60 74 -75 76 -8 2 -22 6 -30 11 -8 4 9 -14 38 -42z"/>
<path d="M4191 2884 c0 -11 3 -14 6 -6 3 7 2 16 -1 19 -3 4 -6 -2 -5 -13z"/>
<path d="M4363 2794 c-7 -7 -10 -21 -7 -31 6 -15 4 -15 -9 2 -16 20 -16 20
-12 -3 2 -12 7 -27 10 -32 3 -5 0 -8 -7 -5 -9 4 -14 -6 -16 -31 -1 -22 2 -33
8 -29 6 4 7 11 4 17 -4 7 -2 8 4 4 9 -5 9 -13 2 -26 -15 -28 -12 -32 9 -14 11
10 17 25 15 38 -2 11 -2 15 2 8 8 -17 24 -5 24 19 0 13 4 18 12 13 7 -4 8 -3
4 5 -4 7 -16 9 -28 6 -18 -7 -19 -5 -4 22 16 33 9 59 -11 37z"/>
<path d="M2232 2749 c-140 -27 -213 -165 -140 -261 15 -20 48 -49 73 -65 114
-71 188 -127 205 -156 41 -67 15 -144 -56 -167 -93 -31 -194 46 -194 149 0 30
-5 43 -19 51 -39 20 -71 -15 -71 -79 0 -30 -36 -71 -63 -71 -35 0 -40 36 -34
239 4 118 12 224 22 266 8 38 15 71 15 72 0 9 -119 1 -182 -11 -108 -21 -177
-50 -243 -104 -142 -114 -180 -330 -78 -443 58 -64 121 -82 206 -58 42 11 103
60 112 90 9 28 19 23 34 -16 16 -44 62 -91 97 -98 41 -8 90 11 118 44 14 17
26 26 26 20 0 -21 61 -79 105 -100 57 -27 161 -29 213 -4 51 24 106 85 120
131 37 124 -16 216 -180 314 -94 56 -128 89 -128 125 0 41 30 65 89 71 46 4
53 2 81 -26 21 -21 30 -40 30 -64 l1 -33 19 24 c24 28 26 83 5 115 -27 41
-107 60 -183 45z m-442 -161 c-1 -18 -5 -92 -9 -164 -7 -108 -13 -140 -33
-180 -41 -82 -112 -86 -152 -9 -30 58 -30 192 2 255 28 58 77 106 122 118 62
18 70 15 70 -20z"/>
<path d="M2905 2718 c-38 -5 -72 -11 -74 -13 -2 -2 8 -18 23 -35 30 -36 33
-81 16 -282 -11 -137 -36 -204 -78 -215 -56 -14 -57 -8 -57 254 0 212 -2 242
-18 266 -9 15 -21 27 -25 27 -13 0 -166 -30 -169 -34 -2 -1 7 -8 20 -15 41
-22 46 -43 52 -217 3 -93 8 -189 11 -213 11 -90 78 -148 158 -138 33 4 50 15
84 53 23 25 44 45 46 43 2 -2 11 -21 21 -43 24 -51 69 -78 118 -72 45 5 74 28
94 75 l14 33 23 -21 c74 -69 179 -38 241 72 l25 42 0 -73 0 -73 -37 -15 c-96
-39 -202 -98 -240 -133 -79 -74 -78 -161 4 -215 96 -63 210 -57 289 16 55 51
84 126 91 233 6 80 6 80 45 108 26 18 48 46 63 80 13 29 24 45 24 36 1 -8 15
-37 31 -63 43 -67 102 -93 175 -77 56 13 129 66 140 102 6 18 10 13 30 -28 31
-68 69 -96 119 -90 67 9 117 78 96 131 l-9 21 0 -21 c-2 -45 -81 -85 -95 -48
-13 33 -6 379 9 464 8 47 15 86 15 88 0 8 -116 -1 -175 -13 -142 -30 -266
-117 -319 -222 -14 -29 -35 -91 -46 -138 -11 -48 -27 -99 -35 -115 -17 -34
-44 -62 -53 -56 -4 2 -4 93 -1 203 6 217 16 263 64 285 34 15 27 30 -21 46
-54 19 -146 3 -240 -42 -99 -47 -156 -102 -202 -194 -35 -71 -37 -82 -39 -178
-1 -56 -6 -111 -12 -123 -17 -30 -49 -45 -67 -30 -19 15 -19 387 0 502 l12 77
-35 -1 c-20 -1 -67 -6 -106 -11z m1105 -140 c-1 -105 -20 -278 -35 -314 -50
-121 -146 -107 -174 26 -15 71 -14 99 9 174 31 98 92 152 178 155 19 1 22 -4
22 -41z m-586 -40 c-14 -170 -60 -302 -109 -314 -31 -8 -44 1 -61 42 -52 123
46 343 154 344 21 0 22 -2 16 -72z m-7 -533 c-7 -74 -40 -159 -71 -180 -30
-21 -82 -19 -106 5 -14 14 -20 33 -20 65 0 37 6 51 33 80 32 35 130 94 156 95
11 0 13 -13 8 -65z"/>
<path d="M4468 2643 c7 -3 16 -2 19 1 4 3 -2 6 -13 5 -11 0 -14 -3 -6 -6z"/>
<path d="M4406 2630 c3 -3 16 -5 29 -5 14 -1 22 2 19 5 -3 3 -16 5 -29 5 -14
1 -22 -2 -19 -5z"/>
<path d="M4346 2614 c-4 -9 -4 -19 -1 -22 2 -3 7 3 11 12 4 9 4 19 1 22 -2 3
-7 -3 -11 -12z"/>
<path d="M4376 2622 c-3 -5 1 -9 9 -9 8 0 12 4 9 9 -3 4 -7 8 -9 8 -2 0 -6 -4
-9 -8z"/>
<path d="M570 2547 c0 -89 72 -175 166 -195 l41 -9 -31 55 c-32 56 -127 166
-158 183 -16 9 -18 5 -18 -34z"/>
<path d="M4270 2448 c-14 -51 -2 -102 35 -146 16 -20 25 -43 26 -68 l2 -39 6
40 c4 22 17 59 29 82 26 50 28 82 6 109 -14 18 -15 16 -10 -26 3 -32 -1 -56
-14 -85 l-19 -40 5 56 c5 44 2 67 -14 102 -27 62 -39 65 -52 15z"/>
<path d="M904 2458 c-44 -48 -56 -105 -34 -163 9 -23 8 -24 -8 -16 -29 16 -54
49 -62 83 l-8 33 -1 -34 c-1 -26 7 -41 34 -66 19 -18 48 -65 66 -104 18 -39
34 -70 36 -67 3 2 -2 17 -10 33 -8 15 -19 45 -25 66 -9 33 -8 40 15 68 29 34
39 93 26 152 l-8 38 -21 -23z"/>
<path d="M647 2311 c3 -11 20 -38 39 -60 28 -32 45 -42 89 -51 88 -18 95 -12
44 40 -30 31 -61 51 -99 63 -30 10 -60 21 -67 23 -7 3 -10 -2 -6 -15z"/>
<path d="M4391 2145 c0 -5 6 -21 14 -35 8 -14 14 -20 14 -15 0 6 -6 21 -14 35
-8 14 -14 21 -14 15z"/>
<path d="M731 2033 c-1 -16 3 -21 14 -17 8 4 15 14 15 23 0 13 -2 13 -9 2 -7
-11 -9 -11 -14 0 -3 8 -6 5 -6 -8z"/>
<path d="M1651 2011 c-62 -23 -110 -58 -146 -104 -26 -35 -57 -112 -48 -120 2
-3 32 16 64 43 70 56 143 80 240 80 68 0 140 -16 331 -74 136 -41 264 -59 351
-51 178 18 327 104 375 218 10 24 10 27 -8 27 -11 0 -41 -21 -67 -46 -61 -61
-117 -85 -213 -91 -100 -7 -175 6 -410 74 -174 50 -207 57 -305 60 -91 3 -119
0 -164 -16z"/>
<path d="M4000 1931 c-24 -47 0 -92 39 -71 24 12 28 25 6 16 -12 -4 -15 3 -15
34 0 43 -13 52 -30 21z"/>
<path d="M4332 1918 c-7 -7 -12 -19 -12 -27 0 -14 15 -7 15 7 0 4 4 13 8 20
10 15 5 16 -11 0z"/>
<path d="M4200 1917 c0 -4 14 -22 31 -42 33 -37 72 -47 83 -19 4 10 2 13 -7 7
-33 -21 -67 -6 -67 30 0 11 -3 17 -7 14 -3 -4 -12 -2 -20 4 -7 6 -13 9 -13 6z"/>
<path d="M3700 1889 c-7 -11 -10 -23 -7 -25 2 -2 9 7 15 21 14 30 7 33 -8 4z"/>
<path d="M3644 1847 c3 -10 6 -25 6 -33 0 -9 5 -12 10 -9 14 9 13 18 -6 41
-14 17 -15 17 -10 1z"/>
<path d="M3911 1830 c-18 -52 -6 -63 57 -57 61 7 101 31 56 35 -14 1 -39 -5
-56 -14 -16 -9 -27 -11 -23 -5 8 14 -4 71 -15 71 -4 0 -13 -14 -19 -30z"/>
<path d="M4267 1803 c-13 -12 -7 -23 18 -35 14 -6 25 -17 25 -25 0 -16 12 -17
28 -1 8 8 1 16 -28 31 -22 10 -37 23 -34 28 6 11 0 12 -9 2z"/>
<path d="M873 1766 c2 -6 19 -20 39 -30 20 -11 41 -28 46 -37 10 -16 9 -17
-16 -9 -15 5 -38 11 -52 12 -14 2 -30 7 -37 11 -6 4 -14 3 -18 -3 -3 -5 -11
-10 -16 -10 -6 0 -7 4 -4 10 4 6 -1 7 -11 3 -14 -5 -16 -3 -11 11 4 10 3 15
-3 11 -18 -11 -11 -24 21 -41 17 -8 28 -11 25 -5 -8 12 4 14 29 5 13 -6 14 -9
3 -16 -8 -6 2 -8 30 -4 32 5 42 3 36 -5 -5 -8 -3 -9 6 -4 7 4 27 9 44 11 64 6
104 24 54 24 -14 0 -33 9 -43 20 -10 11 -21 17 -26 15 -4 -3 -11 -1 -14 5 -4
6 -14 8 -23 6 -21 -7 -47 8 -39 21 3 5 -1 10 -9 10 -8 0 -13 -5 -11 -11z m117
-57 c0 -5 -4 -9 -8 -9 -5 0 -9 7 -9 15 0 8 4 12 9 9 4 -3 8 -9 8 -15z"/>
<path d="M3810 1745 c-7 -20 -9 -47 -6 -60 4 -14 1 -27 -6 -32 -20 -12 61 -20
104 -10 20 5 49 22 64 38 l28 29 -51 0 c-29 0 -63 -4 -77 -10 -25 -9 -26 -8
-26 30 0 51 -15 59 -30 15z"/>
<path d="M742 1743 c25 -27 25 -27 25 -9 0 8 -5 14 -11 13 -6 -1 -10 3 -9 9 1
6 -5 11 -13 11 -10 0 -9 -7 8 -24z"/>
<path d="M3624 1724 c-18 -14 -18 -14 6 -3 31 14 36 19 24 19 -6 0 -19 -7 -30
-16z"/>
<path d="M1170 1722 c0 -2 9 -16 20 -32 26 -36 87 -60 155 -60 l54 0 -24 26
c-14 15 -25 30 -25 35 0 13 -65 30 -124 33 -31 1 -56 1 -56 -2z"/>
<path d="M3583 1695 c0 -22 2 -30 4 -17 2 12 2 30 0 40 -3 9 -5 -1 -4 -23z"/>
<path d="M2198 1660 c-2 -22 0 -40 4 -40 5 0 8 6 8 14 0 8 8 17 18 19 16 4 16
5 0 6 -29 2 -20 21 10 22 24 0 25 1 7 9 -36 15 -43 11 -47 -30z"/>
<path d="M2845 1693 c-17 -3 -20 -10 -17 -43 4 -37 22 -58 22 -25 0 17 16 20
25 5 3 -5 12 -10 18 -9 9 0 9 2 0 5 -8 4 -10 16 -7 33 6 30 -5 39 -41 34z m33
-25 c-7 -19 -38 -22 -38 -4 0 10 9 16 21 16 12 0 19 -5 17 -12z"/>
<path d="M2105 1680 c3 -5 8 -10 11 -10 2 0 4 5 4 10 0 6 -5 10 -11 10 -5 0
-7 -4 -4 -10z"/>
<path d="M3547 1646 c4 -29 0 -60 -11 -87 -23 -58 -12 -61 13 -3 12 26 19 49
16 52 -2 2 0 12 5 22 7 13 4 24 -9 39 -18 21 -19 21 -14 -23z"/>
<path d="M2310 1640 c0 -37 2 -40 28 -39 27 0 27 0 4 10 -20 7 -23 14 -17 39
4 19 3 30 -4 30 -6 0 -11 -18 -11 -40z"/>
<path d="M2416 1658 c-16 -23 -7 -54 19 -64 22 -9 55 15 55 39 0 47 -48 63
-74 25z m58 -11 c8 -12 7 -21 -5 -32 -21 -21 -49 -9 -49 20 0 36 34 44 54 12z"/>
<path d="M2549 1640 c24 -54 29 -57 37 -26 3 14 10 23 15 20 5 -3 9 2 9 10 0
27 -18 26 -28 -1 l-10 -28 -13 33 c-8 17 -17 32 -21 32 -4 0 1 -18 11 -40z"/>
<path d="M2634 1645 c-3 -19 -10 -32 -15 -29 -5 3 -9 1 -9 -5 0 -5 4 -12 9
-15 5 -3 16 14 24 39 9 25 12 45 7 45 -5 0 -12 -16 -16 -35z"/>
<path d="M2714 1664 c3 -9 6 -27 6 -40 0 -21 4 -24 33 -23 27 2 28 3 6 6 -21
3 -26 10 -27 33 0 22 5 30 21 33 15 3 11 5 -12 6 -26 1 -32 -2 -27 -15z"/>
<path d="M945 1568 c14 -46 61 -113 100 -140 22 -15 77 -38 122 -52 l83 -24
-48 56 c-85 101 -120 131 -171 146 -27 8 -59 20 -71 26 -20 11 -21 10 -15 -12z"/>
<path d="M4132 1565 c-77 -28 -123 -63 -169 -126 -19 -27 -57 -66 -84 -88
l-49 -39 43 -21 c24 -12 57 -21 73 -21 34 0 120 40 117 55 -3 16 -64 26 -125
20 -32 -3 -58 -4 -58 -1 0 3 39 18 88 32 136 43 184 81 217 173 8 23 13 40 12
40 -1 -1 -30 -12 -65 -24z"/>
<path d="M1224 1547 c-9 -23 3 -92 22 -128 13 -26 67 -69 86 -69 6 0 1 19 -30
109 -8 24 -27 58 -43 75 -24 27 -28 29 -35 13z"/>
<path d="M3874 1526 c-18 -21 -39 -65 -49 -100 -9 -33 -22 -67 -28 -74 -8 -11
-5 -11 19 -1 70 30 97 77 92 160 l-3 54 -31 -39z"/>
<path d="M1436 1523 c11 -51 40 -98 74 -120 50 -34 64 -31 56 15 -8 45 -32 80
-76 110 -46 31 -62 29 -54 -5z"/>
<path d="M3660 1542 c-52 -23 -100 -88 -100 -134 0 -21 5 -28 19 -28 42 0 98
69 115 143 7 28 -2 33 -34 19z"/>
<path d="M1348 1494 c-7 -64 10 -136 39 -166 31 -33 82 -63 91 -54 16 17 -60
186 -103 226 l-23 22 -4 -28z"/>
<path d="M3746 1489 c-53 -62 -117 -219 -90 -219 5 0 27 10 48 23 50 28 86 93
86 156 0 69 -12 79 -44 40z"/>
<path d="M1810 1417 c0 -2 7 -24 15 -48 12 -34 13 -44 3 -51 -17 -10 -26 -10
-33 2 -11 18 -23 10 -17 -12 3 -14 1 -19 -6 -14 -8 5 -10 1 -6 -9 6 -13 1 -13
-27 4 -48 29 -53 26 -18 -11 30 -34 36 -48 19 -48 -5 0 -10 5 -10 11 0 8 -4 9
-13 0 -8 -6 -17 -8 -20 -4 -4 3 -7 3 -7 -1 0 -4 14 -12 30 -18 25 -8 28 -13
19 -24 -6 -8 -8 -14 -3 -14 5 0 3 -4 -5 -9 -9 -6 -4 -10 17 -13 l31 -4 -6 46
c-3 27 -1 56 6 68 16 30 68 55 102 50 27 -4 29 -2 28 26 0 26 -2 28 -9 11 l-9
-20 0 20 c-1 14 -4 16 -9 7 -6 -9 -17 -2 -40 24 -18 20 -32 34 -32 31z"/>
<path d="M2820 1399 c0 -15 7 -33 16 -40 9 -8 25 -33 35 -57 11 -24 28 -46 41
-51 13 -5 24 -8 26 -6 6 5 -51 103 -83 140 -34 39 -34 40 -35 14z"/>
<path d="M2247 1384 c-15 -15 -24 -30 -21 -35 3 -5 1 -9 -4 -9 -11 0 -42 -77
-34 -84 15 -15 35 -2 48 32 9 20 24 46 33 57 18 21 26 65 12 65 -5 0 -20 -12
-34 -26z"/>
<path d="M3280 1383 c-8 -3 -19 -13 -24 -21 -7 -12 -10 -12 -17 -1 -7 12 -9
11 -9 -1 0 -13 -1 -13 -10 0 -7 12 -10 8 -10 -15 0 -28 3 -30 35 -30 27 0 35
4 35 18 0 10 5 27 10 38 6 10 9 19 8 18 -2 0 -10 -3 -18 -6z"/>
<path d="M1125 1345 c-5 -2 -23 -6 -38 -10 -23 -5 -27 -8 -17 -20 6 -8 31 -22
56 -31 49 -19 92 -15 149 12 35 16 35 17 15 31 -19 13 -140 26 -165 18z"/>
<path d="M3340 1331 c0 -7 -3 -10 -8 -7 -4 2 -14 -1 -23 -8 -15 -10 -14 -13 6
-28 22 -16 23 -16 46 9 l24 26 -35 -18 -35 -18 19 22 c11 11 16 24 13 28 -4 3
-7 1 -7 -6z"/>
<path d="M2992 1320 c0 -8 4 -26 8 -40 6 -20 8 -21 8 -5 0 11 -3 29 -8 40 -5
12 -8 14 -8 5z"/>
<path d="M3390 1299 c-43 -29 -45 -31 -42 -73 2 -24 -1 -47 -7 -51 -16 -9 -13
-25 4 -25 8 0 15 4 15 10 0 5 7 7 15 4 8 -3 22 1 30 10 15 15 15 16 -2 17 -13
1 -11 3 7 9 l25 8 -25 2 c-24 2 -24 2 8 16 31 14 47 32 18 21 -8 -3 -25 -1
-38 5 l-24 12 36 32 c43 41 39 41 -20 3z m0 -59 c0 -5 -7 -10 -16 -10 -8 0
-12 5 -9 10 3 6 10 10 16 10 5 0 9 -4 9 -10z"/>
<path d="M1283 1261 c-24 -11 -43 -24 -43 -29 0 -5 20 -15 44 -22 46 -13 97
-3 138 25 17 11 16 13 -6 23 -49 22 -90 23 -133 3z"/>
<path d="M2971 1264 c0 -11 3 -14 6 -6 3 7 2 16 -1 19 -3 4 -6 -2 -5 -13z"/>
<path d="M3735 1263 c-46 -14 -48 -16 -30 -29 21 -15 79 -34 108 -34 10 0 34
7 55 15 l37 16 -30 18 c-44 28 -84 32 -140 14z"/>
<path d="M1936 1247 c3 -10 9 -15 12 -12 3 3 0 11 -7 18 -10 9 -11 8 -5 -6z"/>
<path d="M1982 1205 c0 -16 2 -22 5 -12 2 9 2 23 0 30 -3 6 -5 -1 -5 -18z"/>
<path d="M2095 1207 c-4 -15 -5 -57 -3 -92 l4 -65 -34 33 c-34 33 -36 20 -5
-30 16 -24 1 -42 -21 -24 -10 8 -17 7 -26 -4 -7 -9 -8 -15 -2 -15 5 0 12 -6
15 -14 5 -12 -9 -14 -84 -9 -77 5 -92 4 -109 -12 -20 -18 -20 -17 -20 9 0 15
7 41 16 58 l16 32 -40 -32 c-22 -18 -44 -32 -50 -32 -5 0 -12 -7 -16 -15 -3
-8 -1 -15 4 -15 6 0 10 4 10 8 0 4 9 8 21 8 19 0 19 -1 2 -14 -10 -7 -40 -25
-68 -39 -60 -31 -108 -70 -96 -77 5 -3 31 -2 57 3 27 5 52 7 56 5 4 -3 36 10
70 28 59 30 70 32 168 33 114 1 152 9 144 29 -3 7 5 52 16 100 22 90 22 116
-4 151 -14 19 -15 19 -21 -8z m-323 -289 c-13 -13 -87 -38 -112 -37 -11 0 68
32 120 48 2 0 -1 -4 -8 -11z"/>
<path d="M1953 1205 c3 -11 8 -28 12 -37 5 -13 2 -18 -10 -18 -9 0 -13 -4 -10
-10 4 -6 -12 -8 -42 -5 l-48 5 55 -19 c31 -11 46 -20 35 -21 -11 -1 -2 -6 20
-11 22 -5 53 -22 70 -37 l30 -27 -31 35 c-37 41 -57 76 -60 107 -1 12 -8 30
-14 40 -11 17 -11 17 -7 -2z"/>
<path d="M2990 1196 c-13 -36 -13 -56 4 -104 8 -22 17 -65 21 -96 8 -64 -5
-59 165 -60 87 -1 98 -3 136 -29 30 -20 57 -29 100 -32 l59 -5 -40 13 c-23 8
-50 19 -60 26 -20 12 -20 12 0 5 11 -4 38 -12 60 -18 22 -6 46 -15 53 -19 7
-5 12 -4 12 2 0 11 -38 37 -123 85 -61 35 -55 43 12 17 28 -10 51 -15 51 -10
0 5 -4 9 -8 9 -8 0 -86 45 -147 85 l-30 20 20 -27 c11 -15 26 -26 34 -25 8 1
16 -5 18 -13 4 -12 3 -12 -5 -1 -14 19 -24 -2 -16 -33 l6 -25 -35 18 c-29 15
-45 16 -111 8 -79 -10 -103 -4 -75 16 13 10 14 15 4 24 -7 7 -15 9 -19 6 -3
-3 -13 -3 -22 1 -13 5 -15 9 -6 18 17 17 15 27 -5 24 -16 -3 -18 5 -18 60 0
73 -18 104 -35 60z"/>
<path d="M3143 1193 c-7 -2 -13 -22 -13 -43 0 -21 -4 -42 -10 -45 -5 -3 -10
-10 -10 -14 0 -13 53 1 79 20 l24 19 -24 0 c-23 1 -23 1 -5 15 23 17 14 20
-14 5 -18 -10 -19 -8 -14 20 4 16 5 30 3 29 -2 0 -10 -3 -16 -6z"/>
<path d="M1365 1142 c-22 -11 -46 -26 -53 -34 -11 -14 -6 -17 38 -23 43 -6 59
-3 98 17 26 13 47 31 47 39 0 22 -82 23 -130 1z"/>
<path d="M3626 1152 c-9 -14 47 -59 85 -67 42 -9 121 3 116 18 -2 7 -18 20
-36 31 -36 21 -155 34 -165 18z"/>
<path d="M1888 1093 c6 -2 18 -2 25 0 6 3 1 5 -13 5 -14 0 -19 -2 -12 -5z"/>
<path d="M3079 1063 c-13 -16 -12 -17 4 -4 16 13 21 21 13 21 -2 0 -10 -8 -17
-17z"/>
<path d="M1671 1043 c-10 -26 -10 -27 4 -9 8 11 15 23 15 28 0 15 -7 8 -19
-19z"/>
<path d="M3431 1065 c0 -18 28 -61 29 -44 0 8 -7 24 -15 35 -8 10 -14 15 -14
9z"/>
<path d="M2610 1030 c0 -16 4 -30 8 -30 5 0 7 14 4 30 -2 17 -6 30 -8 30 -2 0
-4 -13 -4 -30z"/>
<path d="M2500 980 c6 -11 12 -20 14 -20 2 0 2 9 -1 20 -3 11 -9 20 -15 20 -5
0 -4 -9 2 -20z"/>
<path d="M1689 973 c-13 -15 -12 -15 9 -4 23 12 28 21 13 21 -5 0 -15 -7 -22
-17z"/>
<path d="M2603 965 c0 -8 4 -12 9 -9 5 3 6 10 3 15 -9 13 -12 11 -12 -6z"/>
<path d="M2530 942 c0 -12 3 -12 15 -2 11 10 18 9 30 -4 20 -19 32 -21 16 -3
-6 8 -8 17 -4 21 4 4 -7 6 -25 4 -20 -1 -32 -8 -32 -16z"/>
<path d="M2105 915 c-74 -16 -135 -40 -135 -54 0 -6 -6 -11 -14 -11 -8 0 -16
-3 -18 -8 -1 -4 -23 -22 -46 -41 -51 -40 -48 -44 46 -61 74 -13 149 -2 238 35
33 13 54 24 48 25 -19 0 -36 55 -29 94 8 42 6 42 -90 21z"/>
<path d="M2918 885 c3 -31 0 -52 -11 -68 -15 -24 -15 -24 37 -46 95 -39 162
-46 251 -26 l79 17 -24 20 c-14 10 -38 30 -54 44 -15 13 -34 24 -42 24 -8 0
-17 7 -20 15 -4 8 -10 13 -14 10 -5 -3 -15 2 -24 10 -9 9 -46 22 -83 30 -103
22 -101 22 -95 -30z m229 -71 c-3 -3 -12 -4 -19 -1 -8 3 -5 6 6 6 11 1 17 -2
13 -5z"/>
<path d="M2250 770 c6 -11 12 -20 14 -20 2 0 2 9 -1 20 -3 11 -9 20 -15 20 -5
0 -4 -9 2 -20z"/>
</g>
</svg>
